<?xml version="1.0" encoding="UTF-8"?>
<!DOCTYPE svg PUBLIC "-//W3C//DTD SVG 1.1//EN" "http://www.w3.org/Graphics/SVG/1.1/DTD/svg11.dtd">
<svg xmlns="http://www.w3.org/2000/svg" version="1.1" width="225px" height="225px" style="shape-rendering:geometricPrecision; text-rendering:geometricPrecision; image-rendering:optimizeQuality; fill-rule:evenodd; clip-rule:evenodd" xmlns:xlink="http://www.w3.org/1999/xlink">
<g><path style="opacity:0.082" fill="#b7e1ea" d="M 162.5,16.5 C 159.212,16.0156 156.545,17.0156 154.5,19.5C 154.511,17.9826 155.177,16.8159 156.5,16C 158.712,15.2109 160.712,15.3775 162.5,16.5 Z"/></g>
<g><path style="opacity:1" fill="#4f95ad" d="M 162.5,16.5 C 165.112,17.2775 166.945,18.9441 168,21.5C 176.919,36.3365 185.586,51.3365 194,66.5C 195.623,69.3269 196.79,72.3269 197.5,75.5C 197.006,77.0255 196.339,78.3588 195.5,79.5C 195.167,79.5 194.833,79.5 194.5,79.5C 190.459,80.4025 186.459,80.4025 182.5,79.5C 181.289,78.7261 181.289,77.8928 182.5,77C 185.036,76.8138 187.369,76.3138 189.5,75.5C 189.34,73.847 188.674,72.5137 187.5,71.5C 183.663,65.8302 180.33,59.8302 177.5,53.5C 176.083,50.331 174.417,47.331 172.5,44.5C 171.542,44.0472 170.708,43.3805 170,42.5C 167.007,37.6463 164.507,32.6463 162.5,27.5C 161.321,23.1919 159.987,22.8585 158.5,26.5C 149.751,42.333 140.751,57.9997 131.5,73.5C 131.167,73.5 130.833,73.5 130.5,73.5C 130.519,71.9397 130.852,70.4397 131.5,69C 131.387,67.7202 130.72,66.8869 129.5,66.5C 125.099,70.9725 124.433,75.9725 127.5,81.5C 125.319,80.7092 123.653,79.2092 122.5,77C 123.615,75.7651 123.615,74.5984 122.5,73.5C 131.443,57.0531 140.61,40.7197 150,24.5C 151.049,22.3825 152.549,20.7158 154.5,19.5C 156.545,17.0156 159.212,16.0156 162.5,16.5 Z"/></g>
<g><path style="opacity:0.016" fill="#c7eaf8" d="M 162.5,27.5 C 161.292,26.7659 159.959,26.4326 158.5,26.5C 159.987,22.8585 161.321,23.1919 162.5,27.5 Z"/></g>
<g><path style="opacity:0.063" fill="#c7e0e9" d="M 172.5,44.5 C 174.417,47.331 176.083,50.331 177.5,53.5C 174.55,51.2725 172.884,48.2725 172.5,44.5 Z"/></g>
<g><path style="opacity:0.106" fill="#b8e6ec" d="M 130.5,73.5 C 130.833,73.5 131.167,73.5 131.5,73.5C 136.833,74.1667 142.167,74.8333 147.5,75.5C 141.402,76.1167 135.735,75.45 130.5,73.5 Z"/></g>
<g><path style="opacity:1" fill="#37869c" d="M 130.5,73.5 C 135.735,75.45 141.402,76.1167 147.5,75.5C 147.5,110.5 147.5,145.5 147.5,180.5C 146.698,179.048 146.198,177.382 146,175.5C 145.833,143.495 145.333,111.495 144.5,79.5C 143.679,82.4465 143.179,85.4465 143,88.5C 142.617,89.056 142.117,89.3893 141.5,89.5C 141.5,86.8333 141.5,84.1667 141.5,81.5C 136.833,81.5 132.167,81.5 127.5,81.5C 124.433,75.9725 125.099,70.9725 129.5,66.5C 130.72,66.8869 131.387,67.7202 131.5,69C 130.852,70.4397 130.519,71.9397 130.5,73.5 Z"/></g>
<g><path style="opacity:0.122" fill="#b3dfec" d="M 127.5,81.5 C 132.167,81.5 136.833,81.5 141.5,81.5C 141.5,84.1667 141.5,86.8333 141.5,89.5C 141.5,91.5 141.5,93.5 141.5,95.5C 141.5,126.5 141.5,157.5 141.5,188.5C 140.751,187.469 140.085,186.302 139.5,185C 140.496,150.906 140.829,116.74 140.5,82.5C 135.968,82.8182 131.634,82.4849 127.5,81.5 Z"/></g>
<g><path style="opacity:0.984" fill="#368ca8" d="M 189.5,75.5 C 187.369,76.3138 185.036,76.8138 182.5,77C 181.289,77.8928 181.289,78.7261 182.5,79.5C 186.459,80.4025 190.459,80.4025 194.5,79.5C 194.082,80.2216 193.416,80.7216 192.5,81C 187.845,81.4992 183.179,81.6658 178.5,81.5C 178.5,116.167 178.5,150.833 178.5,185.5C 166.751,187.447 154.751,188.114 142.5,187.5C 142.831,156.662 142.498,125.995 141.5,95.5C 141.5,93.5 141.5,91.5 141.5,89.5C 142.117,89.3893 142.617,89.056 143,88.5C 143.179,85.4465 143.679,82.4465 144.5,79.5C 145.333,111.495 145.833,143.495 146,175.5C 146.198,177.382 146.698,179.048 147.5,180.5C 155.433,182.468 163.766,183.135 172.5,182.5C 172.5,146.833 172.5,111.167 172.5,75.5C 178.167,75.5 183.833,75.5 189.5,75.5 Z"/></g>
<g><path style="opacity:1" fill="#2f8eb0" d="M 78.5,181.5 C 78.5,182.833 78.5,184.167 78.5,185.5C 67.8126,185.832 57.1459,185.499 46.5,184.5C 44.1668,182.296 43.8335,179.796 45.5,177C 45.3699,175.941 44.8699,175.108 44,174.5C 43.3333,158.833 43.3333,143.167 44,127.5C 47.0636,126.217 50.3969,125.55 54,125.5C 57.8153,125.617 61.4819,126.284 65,127.5C 66.473,125.954 68.3064,124.954 70.5,124.5C 73.1817,124.077 74.3483,125.077 74,127.5C 71.9592,128.423 69.7925,128.756 67.5,128.5C 67.5,144.167 67.5,159.833 67.5,175.5C 70.1194,175.768 72.6194,175.435 75,174.5C 75.4828,175.448 75.6495,176.448 75.5,177.5C 66.5,177.5 57.5,177.5 48.5,177.5C 48.5,178.833 48.5,180.167 48.5,181.5C 58.5,181.5 68.5,181.5 78.5,181.5 Z"/></g>
<g><path style="opacity:1" fill="#4195ad" d="M 45.5,122.5 C 54.8393,122.334 64.1726,122.5 73.5,123C 74.7659,123.309 75.9326,123.809 77,124.5C 78.4085,143.129 78.9085,162.129 78.5,181.5C 68.5,181.5 58.5,181.5 48.5,181.5C 48.5,180.167 48.5,178.833 48.5,177.5C 57.5,177.5 66.5,177.5 75.5,177.5C 75.6495,176.448 75.4828,175.448 75,174.5C 72.6194,175.435 70.1194,175.768 67.5,175.5C 67.5,159.833 67.5,144.167 67.5,128.5C 69.7925,128.756 71.9592,128.423 74,127.5C 74.3483,125.077 73.1817,124.077 70.5,124.5C 68.3064,124.954 66.473,125.954 65,127.5C 61.4819,126.284 57.8153,125.617 54,125.5C 50.3969,125.55 47.0636,126.217 44,127.5C 43.3333,143.167 43.3333,158.833 44,174.5C 44.8699,175.108 45.3699,175.941 45.5,177C 43.8335,179.796 44.1668,182.296 46.5,184.5C 57.1459,185.499 67.8126,185.832 78.5,185.5C 78.5,186.5 78.5,187.5 78.5,188.5C 67.6745,189.659 56.6745,189.826 45.5,189C 44.2341,188.691 43.0674,188.191 42,187.5C 40.369,167.231 40.0356,146.898 41,126.5C 41.7475,124.249 43.2475,122.916 45.5,122.5 Z"/></g>
<g><path style="opacity:0.561" fill="#87b7c6" d="M 78.5,188.5 C 78.5,187.5 78.5,186.5 78.5,185.5C 78.5,184.167 78.5,182.833 78.5,181.5C 78.9085,162.129 78.4085,143.129 77,124.5C 75.9326,123.809 74.7659,123.309 73.5,123C 64.1726,122.5 54.8393,122.334 45.5,122.5C 55.342,120.489 65.342,120.323 75.5,122C 76.9308,122.465 78.0975,123.299 79,124.5C 80.1309,134.764 80.6309,145.097 80.5,155.5C 80.3333,164.833 80.1667,174.167 80,183.5C 79.8019,185.382 79.3019,187.048 78.5,188.5 Z"/></g>
<g><path style="opacity:0.149" fill="#dadbe0" d="M 34.5,130.5 C 40.0785,134.122 39.4119,136.456 32.5,137.5C 32.1849,134.789 32.8516,132.456 34.5,130.5 Z"/></g>
<g><path style="opacity:0.125" fill="#b5dfe9" d="M 187.5,71.5 C 188.674,72.5137 189.34,73.847 189.5,75.5C 183.833,75.5 178.167,75.5 172.5,75.5C 172.5,111.167 172.5,146.833 172.5,182.5C 163.766,183.135 155.433,182.468 147.5,180.5C 147.5,145.5 147.5,110.5 147.5,75.5C 148.421,109.817 148.921,144.15 149,178.5C 149.758,180.91 151.425,181.91 154,181.5C 159.797,180.862 165.63,180.862 171.5,181.5C 171.333,145.832 171.5,110.165 172,74.5C 176.41,74.1834 180.91,74.0168 185.5,74C 186.756,73.5831 187.423,72.7498 187.5,71.5 Z"/></g>
<g><path style="opacity:0.671" fill="#4e879e" d="M 141.5,95.5 C 142.498,125.995 142.831,156.662 142.5,187.5C 154.751,188.114 166.751,187.447 178.5,185.5C 178.5,186.5 178.5,187.5 178.5,188.5C 166.167,189.833 153.833,189.833 141.5,188.5C 141.5,157.5 141.5,126.5 141.5,95.5 Z"/></g>
<g><path style="opacity:0.016" fill="#d2ceca" d="M 32.5,144.5 C 31.6236,144.631 30.9569,144.298 30.5,143.5C 32.0071,139.645 32.6738,139.979 32.5,144.5 Z"/></g>
<g><path style="opacity:0.173" fill="#d6d8df" d="M 32.5,144.5 C 38.4311,143.742 39.7644,145.742 36.5,150.5C 35.2638,151.246 33.9305,151.579 32.5,151.5C 32.5,149.167 32.5,146.833 32.5,144.5 Z"/></g>
<g><path style="opacity:0.153" fill="#91c3d0" d="M 194.5,79.5 C 194.833,79.5 195.167,79.5 195.5,79.5C 195.586,80.4959 195.252,81.3292 194.5,82C 189.798,82.1717 185.132,82.6717 180.5,83.5C 180.069,84.2935 179.735,85.1268 179.5,86C 179.505,98.1737 179.838,110.507 180.5,123C 179.849,144.973 179.182,166.807 178.5,188.5C 178.5,187.5 178.5,186.5 178.5,185.5C 178.5,150.833 178.5,116.167 178.5,81.5C 183.179,81.6658 187.845,81.4992 192.5,81C 193.416,80.7216 194.082,80.2216 194.5,79.5 Z"/></g>
<g><path style="opacity:0.075" fill="#d5d7db" d="M 32.5,157.5 C 33.4959,157.414 34.3292,157.748 35,158.5C 35.8201,160.728 35.4868,162.728 34,164.5C 32.6485,162.406 32.1485,160.073 32.5,157.5 Z"/></g>
<g><path style="opacity:1" fill="#579db1" d="M 94.5,96.5 C 104.839,96.3335 115.172,96.5002 125.5,97C 127.333,97.5 128.5,98.6667 129,100.5C 129.738,102.953 130.238,105.453 130.5,108C 130.613,134.077 130.447,160.244 130,186.5C 129.626,187.416 129.126,188.25 128.5,189C 116.134,189.773 103.8,189.607 91.5,188.5C 90.751,161.708 90.4177,134.875 90.5,108C 90.9459,104.825 91.4459,101.658 92,98.5C 92.9947,97.9341 93.828,97.2674 94.5,96.5 Z"/></g>
<g><path style="opacity:1" fill="#318daf" d="M 95.5,100.5 C 106.167,100.5 116.833,100.5 127.5,100.5C 127.5,101.833 127.5,103.167 127.5,104.5C 117.161,104.334 106.828,104.5 96.5,105C 95.1667,106 95.1667,107 96.5,108C 101.155,108.499 105.821,108.666 110.5,108.5C 110.5,109.5 110.5,110.5 110.5,111.5C 116.167,111.5 121.833,111.5 127.5,111.5C 128.825,132.839 128.825,154.839 127.5,177.5C 116.813,177.168 106.146,177.501 95.5,178.5C 95.7093,179.086 96.0426,179.586 96.5,180C 106.601,180.681 116.601,181.514 126.5,182.5C 126.5,183.5 126.5,184.5 126.5,185.5C 116.145,185.832 105.812,185.499 95.5,184.5C 95.1924,183.692 94.6924,183.025 94,182.5C 93.8333,169 93.6667,155.5 93.5,142C 93.5174,127.945 94.1841,114.112 95.5,100.5 Z"/></g>
<g><path style="opacity:0.137" fill="#d0d0d0" d="M 32.5,195.5 C 58.6645,194.833 84.9979,194.5 111.5,194.5C 138.175,194.5 164.509,195.167 190.5,196.5C 137.905,195.505 85.2383,195.171 32.5,195.5 Z"/></g>
<g><path style="opacity:0.243" fill="#929292" d="M 31.5,195.5 C 31.0269,196.906 30.0269,197.573 28.5,197.5C 28.9731,196.094 29.9731,195.427 31.5,195.5 Z"/></g>
<g><path style="opacity:0.992" fill="#3a3a3a" d="M 31.5,195.5 C 31.8333,195.5 32.1667,195.5 32.5,195.5C 85.2383,195.171 137.905,195.505 190.5,196.5C 195.401,200.642 195.734,205.309 191.5,210.5C 189.941,211.074 188.441,211.74 187,212.5C 135.647,212.653 84.1472,212.487 32.5,212C 26.3379,208.547 25.0045,203.714 28.5,197.5C 30.0269,197.573 31.0269,196.906 31.5,195.5 Z"/></g>
</svg>
