<svg version="1.1" id="Layer_1" xmlns="http://www.w3.org/2000/svg" xmlns:xlink="http://www.w3.org/1999/xlink" x="0px" y="0px"
	 width="100%" viewBox="0 0 860 1065" enable-background="new 0 0 860 1065" xml:space="preserve">
<path fill="#F7F7F7" opacity="1.000000" stroke="none" 
	d="
M1.000000,391.000000 
	C1.000000,260.683502 1.000000,130.867035 1.000000,1.025271 
	C287.612640,1.025271 574.225281,1.025271 860.918945,1.025271 
	C860.918945,355.899872 860.918945,710.799805 860.918945,1065.849854 
	C574.333374,1065.849854 287.666718,1065.849854 1.000000,1065.849854 
	C1.000000,841.107971 1.000000,616.304016 1.000000,391.000000 
M354.434692,671.993958 
	C446.152802,631.604919 504.041199,533.113464 487.078369,427.635620 
	C479.747284,382.049591 460.694275,341.902924 428.744232,308.710968 
	C372.608521,250.393112 303.865784,227.525650 223.891525,239.999039 
	C176.260712,247.427902 135.115845,268.868378 101.735825,303.428314 
	C44.786255,362.390991 24.453773,433.040771 41.251476,513.084351 
	C54.794918,577.620972 91.649406,626.677002 148.297302,660.326416 
	C189.839325,685.002869 235.075027,694.369751 283.204987,690.224243 
	C307.730957,688.111755 331.198090,682.110718 354.434692,671.993958 
M624.500000,1026.000244 
	C660.831177,1026.000244 697.162415,1026.045166 733.493347,1025.953491 
	C739.140625,1025.939209 744.854431,1025.742310 750.421997,1024.882324 
	C796.243530,1017.804443 826.441284,979.697266 826.404724,938.967285 
	C826.161987,668.817383 826.315308,398.667114 826.114746,128.517151 
	C826.108337,119.855904 824.778687,110.848747 822.181091,102.596092 
	C810.632019,65.903809 775.944153,42.025852 735.076965,42.013206 
	C612.084473,41.975155 489.091858,41.916859 366.099854,42.166706 
	C356.916870,42.185364 347.507080,43.699783 338.599152,46.032581 
	C303.291748,55.278839 274.067078,88.723732 274.835144,129.561249 
	C275.320770,155.383865 274.924896,181.223038 274.924408,207.054794 
	C274.924377,208.688324 274.924408,210.321838 274.924408,211.651535 
	C290.891785,214.015060 306.372314,216.306503 322.286346,218.662125 
	C322.286346,216.747955 322.286255,214.946060 322.286346,213.144165 
	C322.287109,197.811768 322.252289,182.479279 322.295807,167.147003 
	C322.403687,129.135452 352.027832,102.446907 384.904053,102.534477 
	C495.563141,102.829239 606.223511,102.662743 716.883423,102.628471 
	C729.935547,102.624435 741.856262,106.069466 752.358154,113.851204 
	C769.862366,126.821526 778.729431,144.493271 778.833679,166.083176 
	C779.099304,221.078537 778.924500,276.076019 778.924377,331.072662 
	C778.924194,497.229156 778.946533,663.385620 778.903931,829.542114 
	C778.894775,865.319336 752.358215,893.183716 717.336975,893.259766 
	C606.344238,893.500732 495.350739,893.341248 384.357544,893.358276 
	C370.769379,893.360413 358.469727,889.469116 347.695618,881.193726 
	C330.544159,868.019897 322.412415,850.287415 322.329254,828.889160 
	C322.181549,790.892090 322.286865,752.893982 322.286346,714.896301 
	C322.286316,712.939941 322.286346,710.983582 322.286346,709.091064 
	C306.221283,711.449524 290.718170,713.725525 275.065460,716.023438 
	C275.026642,716.779846 274.931458,717.768738 274.931519,718.757629 
	C274.935883,793.586365 274.714172,868.416687 275.245911,943.241760 
	C275.314606,952.914551 277.729706,963.261597 281.718597,972.094788 
	C297.964386,1008.070557 327.172119,1025.605347 366.016754,1025.839355 
	C451.841705,1026.356689 537.671936,1026.000244 624.500000,1026.000244 
z"/>
<path fill="#215EAC" opacity="1.000000" stroke="none" 
	d="
M354.071838,672.113159 
	C331.198090,682.110718 307.730957,688.111755 283.204987,690.224243 
	C235.075027,694.369751 189.839325,685.002869 148.297302,660.326416 
	C91.649406,626.677002 54.794918,577.620972 41.251476,513.084351 
	C24.453773,433.040771 44.786255,362.390991 101.735825,303.428314 
	C135.115845,268.868378 176.260712,247.427902 223.891525,239.999039 
	C303.865784,227.525650 372.608521,250.393112 428.744232,308.710968 
	C460.694275,341.902924 479.747284,382.049591 487.078369,427.635620 
	C504.041199,533.113464 446.152802,631.604919 354.071838,672.113159 
M355.447998,439.947723 
	C374.923248,419.392303 394.456451,398.891022 413.796387,378.209106 
	C416.069153,375.778595 418.075623,372.536041 418.803162,369.349762 
	C420.029083,363.980621 416.859924,359.073425 411.922241,356.825653 
	C406.813416,354.499939 401.550232,355.656860 397.086700,360.366730 
	C351.829132,408.121552 306.600800,455.904083 261.361267,503.675995 
	C249.237823,516.478027 237.104248,529.270447 224.444641,542.627197 
	C223.038177,540.987366 221.944092,539.538452 220.677551,538.260376 
	C189.722687,507.024048 158.749359,475.806000 127.779739,444.584259 
	C121.983879,438.741180 114.315598,438.231445 109.256035,443.355133 
	C104.314934,448.358856 104.763969,455.897522 110.334785,461.526367 
	C145.018707,496.571655 179.696899,531.622620 214.389481,566.659302 
	C221.913513,574.257935 228.399872,574.086853 235.722183,566.349915 
	C275.451569,524.371033 315.208954,482.418671 355.447998,439.947723 
z"/>
<path fill="#225EAC" opacity="1.000000" stroke="none" 
	d="
M624.000000,1026.000244 
	C537.671936,1026.000244 451.841705,1026.356689 366.016754,1025.839355 
	C327.172119,1025.605347 297.964386,1008.070557 281.718597,972.094788 
	C277.729706,963.261597 275.314606,952.914551 275.245911,943.241760 
	C274.714172,868.416687 274.935883,793.586365 274.931519,718.757629 
	C274.931458,717.768738 275.026642,716.779846 275.065460,716.023438 
	C290.718170,713.725525 306.221283,711.449524 322.286346,709.091064 
	C322.286346,710.983582 322.286316,712.939941 322.286346,714.896301 
	C322.286865,752.893982 322.181549,790.892090 322.329254,828.889160 
	C322.412415,850.287415 330.544159,868.019897 347.695618,881.193726 
	C358.469727,889.469116 370.769379,893.360413 384.357544,893.358276 
	C495.350739,893.341248 606.344238,893.500732 717.336975,893.259766 
	C752.358215,893.183716 778.894775,865.319336 778.903931,829.542114 
	C778.946533,663.385620 778.924194,497.229156 778.924377,331.072662 
	C778.924500,276.076019 779.099304,221.078537 778.833679,166.083176 
	C778.729431,144.493271 769.862366,126.821526 752.358154,113.851204 
	C741.856262,106.069466 729.935547,102.624435 716.883423,102.628471 
	C606.223511,102.662743 495.563141,102.829239 384.904053,102.534477 
	C352.027832,102.446907 322.403687,129.135452 322.295807,167.147003 
	C322.252289,182.479279 322.287109,197.811768 322.286346,213.144165 
	C322.286255,214.946060 322.286346,216.747955 322.286346,218.662125 
	C306.372314,216.306503 290.891785,214.015060 274.924408,211.651535 
	C274.924408,210.321838 274.924377,208.688324 274.924408,207.054794 
	C274.924896,181.223038 275.320770,155.383865 274.835144,129.561249 
	C274.067078,88.723732 303.291748,55.278839 338.599152,46.032581 
	C347.507080,43.699783 356.916870,42.185364 366.099854,42.166706 
	C489.091858,41.916859 612.084473,41.975155 735.076965,42.013206 
	C775.944153,42.025852 810.632019,65.903809 822.181091,102.596092 
	C824.778687,110.848747 826.108337,119.855904 826.114746,128.517151 
	C826.315308,398.667114 826.161987,668.817383 826.404724,938.967285 
	C826.441284,979.697266 796.243530,1017.804443 750.421997,1024.882324 
	C744.854431,1025.742310 739.140625,1025.939209 733.493347,1025.953491 
	C697.162415,1026.045166 660.831177,1026.000244 624.000000,1026.000244 
M459.843689,957.500000 
	C459.843811,966.826782 459.813080,976.153625 459.852570,985.480225 
	C459.892761,994.966248 464.406677,999.687561 473.815979,999.699158 
	C519.783447,999.755859 565.751160,999.759949 611.718628,999.697144 
	C620.992004,999.684509 625.902954,994.638489 625.923340,985.479980 
	C625.959595,969.158203 625.955322,952.836304 625.925110,936.514526 
	C625.907715,927.096313 620.928406,922.158875 611.375427,922.153564 
	C565.074768,922.127930 518.774109,922.125793 472.473419,922.144592 
	C464.888306,922.147644 460.011169,926.909546 459.881256,934.515991 
	C459.756134,941.842041 459.847412,949.171875 459.843689,957.500000 
z"/>
<path fill="#F5F6F6" opacity="1.000000" stroke="none" 
	d="
M355.202332,440.202454 
	C315.208954,482.418671 275.451569,524.371033 235.722183,566.349915 
	C228.399872,574.086853 221.913513,574.257935 214.389481,566.659302 
	C179.696899,531.622620 145.018707,496.571655 110.334785,461.526367 
	C104.763969,455.897522 104.314934,448.358856 109.256035,443.355133 
	C114.315598,438.231445 121.983879,438.741180 127.779739,444.584259 
	C158.749359,475.806000 189.722687,507.024048 220.677551,538.260376 
	C221.944092,539.538452 223.038177,540.987366 224.444641,542.627197 
	C237.104248,529.270447 249.237823,516.478027 261.361267,503.675995 
	C306.600800,455.904083 351.829132,408.121552 397.086700,360.366730 
	C401.550232,355.656860 406.813416,354.499939 411.922241,356.825653 
	C416.859924,359.073425 420.029083,363.980621 418.803162,369.349762 
	C418.075623,372.536041 416.069153,375.778595 413.796387,378.209106 
	C394.456451,398.891022 374.923248,419.392303 355.202332,440.202454 
z"/>
<path fill="#F3F4F6" opacity="1.000000" stroke="none" 
	d="
M459.843658,957.000000 
	C459.847412,949.171875 459.756134,941.842041 459.881256,934.515991 
	C460.011169,926.909546 464.888306,922.147644 472.473419,922.144592 
	C518.774109,922.125793 565.074768,922.127930 611.375427,922.153564 
	C620.928406,922.158875 625.907715,927.096313 625.925110,936.514526 
	C625.955322,952.836304 625.959595,969.158203 625.923340,985.479980 
	C625.902954,994.638489 620.992004,999.684509 611.718628,999.697144 
	C565.751160,999.759949 519.783447,999.755859 473.815979,999.699158 
	C464.406677,999.687561 459.892761,994.966248 459.852570,985.480225 
	C459.813080,976.153625 459.843811,966.826782 459.843658,957.000000 
M601.515137,952.531738 
	C601.433716,950.761475 601.352234,948.991272 601.265381,947.103760 
	C562.008118,947.103760 523.174011,947.103760 484.287659,947.103760 
	C484.287659,956.539124 484.287659,965.615295 484.287659,974.770630 
	C523.427551,974.770630 562.292847,974.770630 601.515625,974.770630 
	C601.515625,967.474060 601.515625,960.499207 601.515137,952.531738 
z"/>
<path fill="#225FAC" opacity="1.000000" stroke="none" 
	d="
M601.515381,953.028076 
	C601.515625,960.499207 601.515625,967.474060 601.515625,974.770630 
	C562.292847,974.770630 523.427551,974.770630 484.287659,974.770630 
	C484.287659,965.615295 484.287659,956.539124 484.287659,947.103760 
	C523.174011,947.103760 562.008118,947.103760 601.265381,947.103760 
	C601.352234,948.991272 601.433716,950.761475 601.515381,953.028076 
z"/>
</svg>