<?xml version="1.0" encoding="UTF-8"?>
<!DOCTYPE svg PUBLIC "-//W3C//DTD SVG 1.1//EN" "http://www.w3.org/Graphics/SVG/1.1/DTD/svg11.dtd">
<svg xmlns="http://www.w3.org/2000/svg" version="1.1" width="494px" height="505px" style="shape-rendering:geometricPrecision; text-rendering:geometricPrecision; image-rendering:optimizeQuality; fill-rule:evenodd; clip-rule:evenodd" xmlns:xlink="http://www.w3.org/1999/xlink">
<g><path style="opacity:0.149" fill="#f0e8cb" d="M 53.5,207.5 C 52.8826,207.389 52.3826,207.056 52,206.5C 51.6232,207.942 50.7899,208.942 49.5,209.5C 49.572,207.689 50.4053,206.356 52,205.5C 53.0299,205.836 53.5299,206.503 53.5,207.5 Z"/></g>
<g><path style="opacity:0.267" fill="#efe8ce" d="M 151.5,207.5 C 150.883,207.389 150.383,207.056 150,206.5C 149.148,207.571 148.315,208.571 147.5,209.5C 147.147,207.365 147.98,206.032 150,205.5C 151.03,205.836 151.53,206.503 151.5,207.5 Z"/></g>
<g><path style="opacity:0.655" fill="#f5e7ad" d="M 248.5,208.5 C 247.167,207.167 245.833,207.167 244.5,208.5C 245.833,204.5 247.167,204.5 248.5,208.5 Z"/></g>
<g><path style="opacity:0.482" fill="#fff1b8" d="M 346.5,209.5 C 345.528,207.507 344.195,207.174 342.5,208.5C 342.415,207.005 343.081,206.005 344.5,205.5C 346.111,206.32 346.778,207.654 346.5,209.5 Z"/></g>
<g><path style="opacity:0.204" fill="#fdf3d0" d="M 443.5,207.5 C 442.883,207.389 442.383,207.056 442,206.5C 440.974,209.239 439.474,211.572 437.5,213.5C 438.229,210.374 439.729,207.707 442,205.5C 443.03,205.836 443.53,206.503 443.5,207.5 Z"/></g>
<g><path style="opacity:0.18" fill="#f6edcd" d="M 346.5,209.5 C 347.906,209.973 348.573,210.973 348.5,212.5C 347.094,212.027 346.427,211.027 346.5,209.5 Z"/></g>
<g><path style="opacity:1" fill="#fed323" d="M 53.5,207.5 C 58.3412,215.849 62.6745,224.516 66.5,233.5C 66.7565,235.776 68.0898,236.943 70.5,237C 80.2468,238.069 89.9135,239.569 99.5,241.5C 97.1442,244.186 94.8109,246.853 92.5,249.5C 89.8333,251.5 87.5,253.833 85.5,256.5C 85.5,257.167 85.1667,257.5 84.5,257.5C 83.1667,258.167 82.1667,259.167 81.5,260.5C 79.7484,262.246 78.4151,264.246 77.5,266.5C 77.6253,271.794 78.6253,276.794 80.5,281.5C 81.2653,284.096 81.5987,286.763 81.5,289.5C 81.2322,291.099 81.5655,292.432 82.5,293.5C 82.5,293.833 82.5,294.167 82.5,294.5C 82.719,295.675 82.3857,296.675 81.5,297.5C 79.2612,296.212 76.9279,295.212 74.5,294.5C 68.8489,292.341 63.5156,289.674 58.5,286.5C 58.0269,285.094 57.0269,284.427 55.5,284.5C 52.7559,283.509 50.0893,283.843 47.5,285.5C 45.9731,285.427 44.9731,286.094 44.5,287.5C 41.4846,289.674 38.1513,291.341 34.5,292.5C 32.326,292.75 30.6594,293.75 29.5,295.5C 27.6203,295.229 26.287,295.896 25.5,297.5C 23.8212,297.715 22.8212,297.048 22.5,295.5C 22.779,290.773 23.4456,286.107 24.5,281.5C 26.1094,278.851 26.9428,275.851 27,272.5C 27.6667,269.5 27.6667,266.5 27,263.5C 23.5706,259.561 19.7372,256.228 15.5,253.5C 13.8333,252.5 12.5,251.167 11.5,249.5C 10.5,247.833 9.16667,246.5 7.5,245.5C 6.5,245.167 5.83333,244.5 5.5,243.5C 4.89022,242.609 4.55688,241.609 4.5,240.5C 8.94263,239.199 13.6093,238.532 18.5,238.5C 24.9232,238.368 31.2565,237.535 37.5,236C 38.3366,234.989 38.67,233.822 38.5,232.5C 41.8963,224.707 45.563,217.041 49.5,209.5C 50.7899,208.942 51.6232,207.942 52,206.5C 52.3826,207.056 52.8826,207.389 53.5,207.5 Z"/></g>
<g><path style="opacity:1" fill="#fed324" d="M 151.5,207.5 C 155.621,214.077 158.954,221.077 161.5,228.5C 161.427,230.027 162.094,231.027 163.5,231.5C 163.5,231.833 163.5,232.167 163.5,232.5C 163.427,234.027 164.094,235.027 165.5,235.5C 174.784,237.569 184.284,239.236 194,240.5C 195.681,240.608 196.848,241.275 197.5,242.5C 196.5,242.833 195.833,243.5 195.5,244.5C 195.5,245.167 195.167,245.5 194.5,245.5C 192.5,247.167 190.5,248.833 188.5,250.5C 187.749,249.427 186.749,249.26 185.5,250C 183,252.833 180.5,255.667 178,258.5C 176.493,257.465 174.993,257.632 173.5,259C 175.376,259.918 176.376,261.418 176.5,263.5C 175.699,265.042 175.366,266.708 175.5,268.5C 175.676,271.727 176.343,274.727 177.5,277.5C 179.143,283.359 180.143,289.359 180.5,295.5C 180.179,297.048 179.179,297.715 177.5,297.5C 176.508,297.672 175.842,297.338 175.5,296.5C 174.341,294.75 172.674,293.75 170.5,293.5C 164.182,291.008 158.182,288.008 152.5,284.5C 151.779,282.618 150.779,282.285 149.5,283.5C 142.981,287.928 135.981,291.594 128.5,294.5C 126.326,294.75 124.659,295.75 123.5,297.5C 122.504,297.414 121.671,297.748 121,298.5C 120.506,296.866 120.34,295.199 120.5,293.5C 121.206,285.267 122.539,277.267 124.5,269.5C 125.622,267.712 125.789,265.712 125,263.5C 124.184,262.177 123.017,261.511 121.5,261.5C 121.167,259.167 119.833,257.833 117.5,257.5C 118.099,253.425 116.099,251.425 111.5,251.5C 111.167,250.5 110.5,249.833 109.5,249.5C 109.167,248.5 108.5,247.833 107.5,247.5C 105.42,245.427 103.754,243.093 102.5,240.5C 109.16,240.694 115.493,239.694 121.5,237.5C 124.096,236.735 126.763,236.401 129.5,236.5C 132.082,236.975 134.082,236.308 135.5,234.5C 138.229,228.041 141.229,221.708 144.5,215.5C 145.906,215.027 146.573,214.027 146.5,212.5C 146.263,211.209 146.596,210.209 147.5,209.5C 148.315,208.571 149.148,207.571 150,206.5C 150.383,207.056 150.883,207.389 151.5,207.5 Z"/></g>
<g><path style="opacity:0.082" fill="#efe9d0" d="M 445.5,211.5 C 447.104,212.287 447.771,213.62 447.5,215.5C 446.326,214.486 445.66,213.153 445.5,211.5 Z"/></g>
<g><path style="opacity:0.192" fill="#fff4c8" d="M 146.5,212.5 C 146.573,214.027 145.906,215.027 144.5,215.5C 144.427,213.973 145.094,212.973 146.5,212.5 Z"/></g>
<g><path style="opacity:0.118" fill="#eee9d6" d="M 349.5,214.5 C 350.674,215.514 351.34,216.847 351.5,218.5C 349.896,217.713 349.229,216.38 349.5,214.5 Z"/></g>
<g><path style="opacity:0.192" fill="#f3e8bf" d="M 351.5,219.5 C 353.104,220.287 353.771,221.62 353.5,223.5C 352.326,222.486 351.66,221.153 351.5,219.5 Z"/></g>
<g><path style="opacity:0.173" fill="#f0e8c9" d="M 237.5,223.5 C 237.573,225.027 236.906,226.027 235.5,226.5C 235.427,224.973 236.094,223.973 237.5,223.5 Z"/></g>
<g><path style="opacity:0.129" fill="#f0e9cd" d="M 353.5,223.5 C 354.906,223.973 355.573,224.973 355.5,226.5C 354.094,226.027 353.427,225.027 353.5,223.5 Z"/></g>
<g><path style="opacity:0.133" fill="#f0e8c9" d="M 355.5,227.5 C 356.906,227.973 357.573,228.973 357.5,230.5C 356.094,230.027 355.427,229.027 355.5,227.5 Z"/></g>
<g><path style="opacity:0.224" fill="#fff4c7" d="M 161.5,228.5 C 162.906,228.973 163.573,229.973 163.5,231.5C 162.094,231.027 161.427,230.027 161.5,228.5 Z"/></g>
<g><path style="opacity:0.259" fill="#f5eabd" d="M 258.5,229.5 C 259.906,229.973 260.573,230.973 260.5,232.5C 259.094,232.027 258.427,231.027 258.5,229.5 Z"/></g>
<g><path style="opacity:0.102" fill="#f2e9c9" d="M 357.5,231.5 C 359.104,232.287 359.771,233.62 359.5,235.5C 358.326,234.486 357.66,233.153 357.5,231.5 Z"/></g>
<g><path style="opacity:0.224" fill="#fbf0c6" d="M 163.5,232.5 C 164.906,232.973 165.573,233.973 165.5,235.5C 164.094,235.027 163.427,234.027 163.5,232.5 Z"/></g>
<g><path style="opacity:0.259" fill="#f0e8c7" d="M 135.5,234.5 C 134.082,236.308 132.082,236.975 129.5,236.5C 131.374,235.715 133.374,235.048 135.5,234.5 Z"/></g>
<g><path style="opacity:0.106" fill="#fef7db" d="M 261.5,234.5 C 263.626,235.048 265.626,235.715 267.5,236.5C 264.918,236.975 262.918,236.308 261.5,234.5 Z"/></g>
<g><path style="opacity:0.38" fill="#f3eac6" d="M 330.5,232.5 C 330.67,233.822 330.337,234.989 329.5,236C 327.527,236.495 325.527,236.662 323.5,236.5C 324.952,235.698 326.618,235.198 328.5,235C 329.066,234.005 329.733,233.172 330.5,232.5 Z"/></g>
<g><path style="opacity:0.133" fill="#f9eec3" d="M 165.5,235.5 C 176.793,236.565 187.959,238.232 199,240.5C 203.066,239.419 207.233,238.752 211.5,238.5C 208.097,239.925 204.43,240.758 200.5,241C 199.829,241.986 199.829,243.153 200.5,244.5C 199.5,243.833 198.5,243.167 197.5,242.5C 196.848,241.275 195.681,240.608 194,240.5C 184.284,239.236 174.784,237.569 165.5,235.5 Z"/></g>
<g><path style="opacity:0.494" fill="#f5ebc5" d="M 232.5,233.5 C 232.586,234.496 232.252,235.329 231.5,236C 227.582,237.156 223.582,237.656 219.5,237.5C 224.003,236.896 228.337,235.563 232.5,233.5 Z"/></g>
<g><path style="opacity:0.212" fill="#f8edc4" d="M 359.5,235.5 C 370.743,236.431 381.743,238.098 392.5,240.5C 381.197,239.967 370.197,238.3 359.5,235.5 Z"/></g>
<g><path style="opacity:0.525" fill="#f6eabb" d="M 427.5,234.5 C 426.77,236.045 425.437,236.878 423.5,237C 418.552,238.05 413.552,238.55 408.5,238.5C 414.741,237.174 421.074,235.84 427.5,234.5 Z"/></g>
<g><path style="opacity:0.176" fill="#f5ecca" d="M 457.5,235.5 C 468.536,236.672 479.536,238.172 490.5,240C 491.451,240.718 491.617,241.551 491,242.5C 487.571,246.439 483.737,249.772 479.5,252.5C 482.811,248.853 486.145,245.187 489.5,241.5C 478.671,239.698 468.004,237.698 457.5,235.5 Z"/></g>
<g><path style="opacity:0.129" fill="#f7eecb" d="M 38.5,232.5 C 38.67,233.822 38.3366,234.989 37.5,236C 31.2565,237.535 24.9232,238.368 18.5,238.5C 24.3564,237.299 30.3564,236.133 36.5,235C 37.0659,234.005 37.7326,233.172 38.5,232.5 Z"/></g>
<g><path style="opacity:0.167" fill="#f9efca" d="M 66.5,233.5 C 68.5161,235.013 70.8494,235.847 73.5,236C 83.2242,237.27 92.8909,238.77 102.5,240.5C 103.754,243.093 105.42,245.427 107.5,247.5C 104.944,246.457 102.777,244.79 101,242.5C 98.5644,245.447 95.7311,247.78 92.5,249.5C 94.8109,246.853 97.1442,244.186 99.5,241.5C 89.9135,239.569 80.2468,238.069 70.5,237C 68.0898,236.943 66.7565,235.776 66.5,233.5 Z"/></g>
<g><path style="opacity:0.082" fill="#f7ecc5" d="M 267.5,236.5 C 276.765,236.918 285.765,238.251 294.5,240.5C 285.213,240.217 276.213,238.884 267.5,236.5 Z"/></g>
<g><path style="opacity:0.604" fill="#f7eab8" d="M 121.5,237.5 C 115.493,239.694 109.16,240.694 102.5,240.5C 108.631,239.051 114.964,238.051 121.5,237.5 Z"/></g>
<g><path style="opacity:0.439" fill="#f8ecc2" d="M 316.5,237.5 C 315.737,238.268 314.737,238.768 313.5,239C 307.851,239.757 302.184,240.257 296.5,240.5C 302.953,238.958 309.62,237.958 316.5,237.5 Z"/></g>
<g><path style="opacity:0.565" fill="#f8ecbb" d="M 408.5,238.5 C 404.1,240.104 399.434,240.771 394.5,240.5C 398.943,239.199 403.609,238.532 408.5,238.5 Z"/></g>
<g><path style="opacity:0.182" fill="#f1ebd0" d="M 392.5,240.5 C 393.167,240.5 393.833,240.5 394.5,240.5C 395.754,243.093 397.42,245.427 399.5,247.5C 396.907,246.246 394.573,244.58 392.5,242.5C 392.5,241.833 392.5,241.167 392.5,240.5 Z"/></g>
<g><path style="opacity:0.278" fill="#fef4d0" d="M 4.5,240.5 C 4.55688,241.609 4.89022,242.609 5.5,243.5C 3.44818,242.947 3.11484,241.947 4.5,240.5 Z"/></g>
<g><path style="opacity:0.208" fill="#efead6" d="M 294.5,240.5 C 295.167,240.5 295.833,240.5 296.5,240.5C 297.415,242.754 298.748,244.754 300.5,246.5C 298.246,245.585 296.246,244.252 294.5,242.5C 294.5,241.833 294.5,241.167 294.5,240.5 Z"/></g>
<g><path style="opacity:0.012" fill="#fef5d7" d="M 197.5,242.5 C 197.5,243.833 196.833,244.5 195.5,244.5C 195.833,243.5 196.5,242.833 197.5,242.5 Z"/></g>
<g><path style="opacity:0.063" fill="#f6ecca" d="M 392.5,242.5 C 390.5,245.167 388.167,247.5 385.5,249.5C 386.833,246.167 389.167,243.833 392.5,242.5 Z"/></g>
<g><path style="opacity:0.627" fill="#fceebc" d="M 200.5,244.5 C 207.11,249.441 213.11,255.108 218.5,261.5C 211.89,256.559 205.89,250.892 200.5,244.5 Z"/></g>
<g><path style="opacity:0.027" fill="#f1ebd8" d="M 7.5,245.5 C 9.16667,246.5 10.5,247.833 11.5,249.5C 9.16667,249.167 7.83333,247.833 7.5,245.5 Z"/></g>
<g><path style="opacity:1" fill="#fed222" d="M 248.5,208.5 C 252.621,215.077 255.954,222.077 258.5,229.5C 258.427,231.027 259.094,232.027 260.5,232.5C 261.338,232.842 261.672,233.508 261.5,234.5C 262.918,236.308 264.918,236.975 267.5,236.5C 276.213,238.884 285.213,240.217 294.5,240.5C 294.5,241.167 294.5,241.833 294.5,242.5C 291.167,246.5 287.5,250.167 283.5,253.5C 282.167,253.5 281.5,254.167 281.5,255.5C 281.5,256.167 281.167,256.5 280.5,256.5C 277.269,258.22 274.436,260.553 272,263.5C 271.22,265.387 271.387,267.054 272.5,268.5C 272.344,272.764 273.011,276.764 274.5,280.5C 275.675,284.042 276.341,287.709 276.5,291.5C 276.975,294.082 276.308,296.082 274.5,297.5C 272.181,297.008 270.181,296.008 268.5,294.5C 268.027,293.094 267.027,292.427 265.5,292.5C 265.167,292.5 264.833,292.5 264.5,292.5C 264.027,291.094 263.027,290.427 261.5,290.5C 260.209,290.737 259.209,290.404 258.5,289.5C 258.027,288.094 257.027,287.427 255.5,287.5C 252.515,286.674 249.849,285.341 247.5,283.5C 245.49,282.651 243.823,283.318 242.5,285.5C 240.151,287.341 237.485,288.674 234.5,289.5C 231.669,290.079 229.336,291.412 227.5,293.5C 226.486,294.674 225.153,295.34 223.5,295.5C 221.742,295.877 220.075,296.544 218.5,297.5C 217.534,295.604 217.201,293.604 217.5,291.5C 218.138,282.894 219.472,274.394 221.5,266C 221.257,265.098 220.923,264.265 220.5,263.5C 220.167,262.5 219.5,261.833 218.5,261.5C 213.11,255.108 207.11,249.441 200.5,244.5C 199.829,243.153 199.829,241.986 200.5,241C 204.43,240.758 208.097,239.925 211.5,238.5C 214.096,237.735 216.763,237.401 219.5,237.5C 223.582,237.656 227.582,237.156 231.5,236C 232.252,235.329 232.586,234.496 232.5,233.5C 233.227,231.046 234.227,228.713 235.5,226.5C 236.906,226.027 237.573,225.027 237.5,223.5C 239.597,218.311 241.93,213.311 244.5,208.5C 245.833,207.167 247.167,207.167 248.5,208.5 Z"/></g>
<g><path style="opacity:0.012" fill="#fef7dc" d="M 107.5,247.5 C 108.5,247.833 109.167,248.5 109.5,249.5C 108.167,249.5 107.5,248.833 107.5,247.5 Z"/></g>
<g><path style="opacity:0.737" fill="#faebb0" d="M 302.5,248.5 C 307.774,252.105 312.441,256.438 316.5,261.5C 311.226,257.895 306.559,253.562 302.5,248.5 Z"/></g>
<g><path style="opacity:1" fill="#ffd94f" d="M 188.5,250.5 C 188.167,251.167 187.833,251.833 187.5,252.5C 184.167,256.5 180.5,260.167 176.5,263.5C 176.376,261.418 175.376,259.918 173.5,259C 174.993,257.632 176.493,257.465 178,258.5C 180.5,255.667 183,252.833 185.5,250C 186.749,249.26 187.749,249.427 188.5,250.5 Z"/></g>
<g><path style="opacity:0.008" fill="#fef8df" d="M 109.5,249.5 C 110.5,249.833 111.167,250.5 111.5,251.5C 110.167,251.5 109.5,250.833 109.5,249.5 Z"/></g>
<g><path style="opacity:0.008" fill="#efead9" d="M 194.5,245.5 C 193.167,248.833 190.833,251.167 187.5,252.5C 187.833,251.833 188.167,251.167 188.5,250.5C 190.5,248.833 192.5,247.167 194.5,245.5 Z"/></g>
<g><path style="opacity:1" fill="#ffde63" d="M 111.5,251.5 C 116.099,251.425 118.099,253.425 117.5,257.5C 115.167,255.833 113.167,253.833 111.5,251.5 Z"/></g>
<g><path style="opacity:0.012" fill="#eee9da" d="M 402.5,250.5 C 403.5,250.833 404.167,251.5 404.5,252.5C 403.167,252.5 402.5,251.833 402.5,250.5 Z"/></g>
<g><path style="opacity:1" fill="#fed222" d="M 443.5,207.5 C 444.674,208.514 445.34,209.847 445.5,211.5C 445.66,213.153 446.326,214.486 447.5,215.5C 451.341,221.849 454.675,228.516 457.5,235.5C 468.004,237.698 478.671,239.698 489.5,241.5C 486.145,245.187 482.811,248.853 479.5,252.5C 476.167,256.5 472.5,260.167 468.5,263.5C 466.618,264.221 466.285,265.221 467.5,266.5C 468.989,271.617 469.989,276.951 470.5,282.5C 470.308,287.127 470.974,291.627 472.5,296C 472.167,296.5 471.833,297 471.5,297.5C 470.583,296.873 469.583,296.539 468.5,296.5C 461.516,293.675 454.849,290.341 448.5,286.5C 448.027,285.094 447.027,284.427 445.5,284.5C 443.5,283.167 441.5,283.167 439.5,284.5C 437.847,284.66 436.514,285.326 435.5,286.5C 432.992,288.924 429.992,290.59 426.5,291.5C 424.847,291.66 423.514,292.326 422.5,293.5C 419.669,294.079 417.336,295.412 415.5,297.5C 414.5,297.5 413.5,297.5 412.5,297.5C 412.5,296.167 412.5,294.833 412.5,293.5C 412.216,291.585 412.549,289.919 413.5,288.5C 414.785,285.411 415.451,282.078 415.5,278.5C 415.5,277.833 415.5,277.167 415.5,276.5C 420.012,267.415 417.679,260.749 408.5,256.5C 407.5,256.167 406.833,255.5 406.5,254.5C 406.167,253.5 405.5,252.833 404.5,252.5C 404.167,251.5 403.5,250.833 402.5,250.5C 401.167,249.833 400.167,248.833 399.5,247.5C 397.42,245.427 395.754,243.093 394.5,240.5C 399.434,240.771 404.1,240.104 408.5,238.5C 413.552,238.55 418.552,238.05 423.5,237C 425.437,236.878 426.77,236.045 427.5,234.5C 430.563,227.374 433.896,220.374 437.5,213.5C 439.474,211.572 440.974,209.239 442,206.5C 442.383,207.056 442.883,207.389 443.5,207.5 Z"/></g>
<g><path style="opacity:0.702" fill="#faebb7" d="M 15.5,253.5 C 19.7372,256.228 23.5706,259.561 27,263.5C 27.6667,266.5 27.6667,269.5 27,272.5C 26.9428,275.851 26.1094,278.851 24.5,281.5C 25.4443,275.846 25.9443,270.18 26,264.5C 22.2961,260.964 18.7961,257.298 15.5,253.5 Z"/></g>
<g><path style="opacity:0.051" fill="#fbf3d8" d="M 283.5,253.5 C 283.167,254.5 282.5,255.167 281.5,255.5C 281.5,254.167 282.167,253.5 283.5,253.5 Z"/></g>
<g><path style="opacity:0.004" fill="#eeeadc" d="M 404.5,252.5 C 405.5,252.833 406.167,253.5 406.5,254.5C 405.167,254.5 404.5,253.833 404.5,252.5 Z"/></g>
<g><path style="opacity:0.016" fill="#fff8df" d="M 92.5,249.5 C 91.1667,252.833 88.8333,255.167 85.5,256.5C 87.5,253.833 89.8333,251.5 92.5,249.5 Z"/></g>
<g><path style="opacity:0.024" fill="#f3eacc" d="M 385.5,249.5 C 383.431,252.573 380.764,254.906 377.5,256.5C 379.569,253.427 382.236,251.094 385.5,249.5 Z"/></g>
<g><path style="opacity:0.655" fill="#f9ebb6" d="M 408.5,256.5 C 417.679,260.749 420.012,267.415 415.5,276.5C 416.004,272.493 416.17,268.493 416,264.5C 413.295,261.964 410.795,259.297 408.5,256.5 Z"/></g>
<g><path style="opacity:0.725" fill="#ffeca4" d="M 117.5,257.5 C 119.833,257.833 121.167,259.167 121.5,261.5C 119.833,260.5 118.5,259.167 117.5,257.5 Z"/></g>
<g><path style="opacity:0.004" fill="#f0ead8" d="M 84.5,257.5 C 84.5,259.5 83.5,260.5 81.5,260.5C 82.1667,259.167 83.1667,258.167 84.5,257.5 Z"/></g>
<g><path style="opacity:0.059" fill="#f3e9c8" d="M 280.5,256.5 C 278.205,259.297 275.705,261.964 273,264.5C 272.51,265.793 272.343,267.127 272.5,268.5C 271.387,267.054 271.22,265.387 272,263.5C 274.436,260.553 277.269,258.22 280.5,256.5 Z"/></g>
<g><path style="opacity:0.008" fill="#fef7d9" d="M 218.5,261.5 C 219.5,261.833 220.167,262.5 220.5,263.5C 219.167,263.5 218.5,262.833 218.5,261.5 Z"/></g>
<g><path style="opacity:0.02" fill="#f4ecd0" d="M 377.5,256.5 C 375.949,259.563 373.782,262.229 371,264.5C 370.643,268.51 370.81,272.51 371.5,276.5C 367.264,267.989 369.264,261.322 377.5,256.5 Z"/></g>
<g><path style="opacity:0.02" fill="#f5edd1" d="M 316.5,261.5 C 317.458,261.953 318.292,262.619 319,263.5C 319.805,266.696 319.638,269.696 318.5,272.5C 318.887,268.556 318.22,264.889 316.5,261.5 Z"/></g>
<g><path style="opacity:1" fill="#fed220" d="M 346.5,209.5 C 346.427,211.027 347.094,212.027 348.5,212.5C 349.338,212.842 349.672,213.508 349.5,214.5C 349.229,216.38 349.896,217.713 351.5,218.5C 351.5,218.833 351.5,219.167 351.5,219.5C 351.66,221.153 352.326,222.486 353.5,223.5C 353.427,225.027 354.094,226.027 355.5,226.5C 355.5,226.833 355.5,227.167 355.5,227.5C 355.427,229.027 356.094,230.027 357.5,230.5C 357.5,230.833 357.5,231.167 357.5,231.5C 357.66,233.153 358.326,234.486 359.5,235.5C 370.197,238.3 381.197,239.967 392.5,240.5C 392.5,241.167 392.5,241.833 392.5,242.5C 389.167,243.833 386.833,246.167 385.5,249.5C 382.236,251.094 379.569,253.427 377.5,256.5C 369.264,261.322 367.264,267.989 371.5,276.5C 373.246,282.25 374.246,288.25 374.5,294.5C 374.719,295.675 374.386,296.675 373.5,297.5C 372.583,296.873 371.583,296.539 370.5,296.5C 366.182,295.008 362.182,293.008 358.5,290.5C 358.027,289.094 357.027,288.427 355.5,288.5C 351.849,287.341 348.515,285.674 345.5,283.5C 344.038,282.529 342.705,282.862 341.5,284.5C 338.322,287.258 334.655,289.258 330.5,290.5C 327.008,291.41 324.008,293.076 321.5,295.5C 321.158,296.338 320.492,296.672 319.5,296.5C 318.305,296.678 317.138,297.011 316,297.5C 314.97,297.164 314.47,296.497 314.5,295.5C 315.29,287.61 316.623,279.943 318.5,272.5C 319.638,269.696 319.805,266.696 319,263.5C 318.292,262.619 317.458,261.953 316.5,261.5C 312.441,256.438 307.774,252.105 302.5,248.5C 301.5,248.167 300.833,247.5 300.5,246.5C 298.748,244.754 297.415,242.754 296.5,240.5C 302.184,240.257 307.851,239.757 313.5,239C 314.737,238.768 315.737,238.268 316.5,237.5C 318.717,236.631 321.05,236.298 323.5,236.5C 325.527,236.662 327.527,236.495 329.5,236C 330.337,234.989 330.67,233.822 330.5,232.5C 333.992,224.182 337.992,216.182 342.5,208.5C 344.195,207.174 345.528,207.507 346.5,209.5 Z"/></g>
<g><path style="opacity:0.42" fill="#f2e6b4" d="M 468.5,263.5 C 468.443,264.609 468.11,265.609 467.5,266.5C 466.285,265.221 466.618,264.221 468.5,263.5 Z"/></g>
<g><path style="opacity:0.333" fill="#fff2bf" d="M 121.5,261.5 C 123.017,261.511 124.184,262.177 125,263.5C 125.789,265.712 125.622,267.712 124.5,269.5C 124.984,266.212 123.984,263.545 121.5,261.5 Z"/></g>
<g><path style="opacity:0.384" fill="#f3eac6" d="M 77.5,266.5 C 79.1179,271.256 80.1179,276.256 80.5,281.5C 78.6253,276.794 77.6253,271.794 77.5,266.5 Z"/></g>
<g><path style="opacity:0.018" fill="#fbf4db" d="M 175.5,268.5 C 177.118,271.171 177.785,274.171 177.5,277.5C 176.343,274.727 175.676,271.727 175.5,268.5 Z"/></g>
<g><path style="opacity:0.031" fill="#fdf8e4" d="M 272.5,268.5 C 273.795,272.267 274.461,276.267 274.5,280.5C 273.011,276.764 272.344,272.764 272.5,268.5 Z"/></g>
<g><path style="opacity:0.141" fill="#fef5d0" d="M 149.5,283.5 C 150.779,282.285 151.779,282.618 152.5,284.5C 151.391,284.443 150.391,284.11 149.5,283.5 Z"/></g>
<g><path style="opacity:0.157" fill="#fff4cb" d="M 247.5,283.5 C 245.95,284.441 244.284,285.107 242.5,285.5C 243.823,283.318 245.49,282.651 247.5,283.5 Z"/></g>
<g><path style="opacity:0.125" fill="#f1e7bb" d="M 345.5,283.5 C 344.292,284.234 342.959,284.567 341.5,284.5C 342.705,282.862 344.038,282.529 345.5,283.5 Z"/></g>
<g><path style="opacity:0.137" fill="#fef5d2" d="M 55.5,284.5 C 57.0269,284.427 58.0269,285.094 58.5,286.5C 56.9731,286.573 55.9731,285.906 55.5,284.5 Z"/></g>
<g><path style="opacity:0.173" fill="#faf0c8" d="M 415.5,278.5 C 415.451,282.078 414.785,285.411 413.5,288.5C 413.322,284.878 413.989,281.544 415.5,278.5 Z"/></g>
<g><path style="opacity:0.106" fill="#f9efc5" d="M 439.5,284.5 C 438.713,286.104 437.38,286.771 435.5,286.5C 436.514,285.326 437.847,284.66 439.5,284.5 Z"/></g>
<g><path style="opacity:0.153" fill="#f0e7c3" d="M 445.5,284.5 C 447.027,284.427 448.027,285.094 448.5,286.5C 446.973,286.573 445.973,285.906 445.5,284.5 Z"/></g>
<g><path style="opacity:0.016" fill="#f3edd7" d="M 47.5,285.5 C 47.0269,286.906 46.0269,287.573 44.5,287.5C 44.9731,286.094 45.9731,285.427 47.5,285.5 Z"/></g>
<g><path style="opacity:0.102" fill="#f0e8cd" d="M 255.5,287.5 C 257.027,287.427 258.027,288.094 258.5,289.5C 256.973,289.573 255.973,288.906 255.5,287.5 Z"/></g>
<g><path style="opacity:0.145" fill="#fff4cf" d="M 355.5,288.5 C 357.027,288.427 358.027,289.094 358.5,290.5C 356.973,290.573 355.973,289.906 355.5,288.5 Z"/></g>
<g><path style="opacity:0.149" fill="#f1e8c5" d="M 234.5,289.5 C 232.664,291.588 230.331,292.921 227.5,293.5C 229.336,291.412 231.669,290.079 234.5,289.5 Z"/></g>
<g><path style="opacity:0.153" fill="#fff4cd" d="M 261.5,290.5 C 263.027,290.427 264.027,291.094 264.5,292.5C 262.973,292.573 261.973,291.906 261.5,290.5 Z"/></g>
<g><path style="opacity:0.286" fill="#f3ecd0" d="M 81.5,289.5 C 82.2485,290.531 82.9152,291.698 83.5,293C 83.2716,293.399 82.9382,293.565 82.5,293.5C 81.5655,292.432 81.2322,291.099 81.5,289.5 Z"/></g>
<g><path style="opacity:0.176" fill="#f4ebc8" d="M 426.5,291.5 C 425.713,293.104 424.38,293.771 422.5,293.5C 423.514,292.326 424.847,291.66 426.5,291.5 Z"/></g>
<g><path style="opacity:0.098" fill="#f3ebce" d="M 34.5,292.5 C 33.3406,294.25 31.674,295.25 29.5,295.5C 30.6594,293.75 32.326,292.75 34.5,292.5 Z"/></g>
<g><path style="opacity:0.212" fill="#f5e8bc" d="M 265.5,292.5 C 267.027,292.427 268.027,293.094 268.5,294.5C 266.973,294.573 265.973,293.906 265.5,292.5 Z"/></g>
<g><path style="opacity:0.145" fill="#f9f0cf" d="M 330.5,290.5 C 327.992,292.924 324.992,294.59 321.5,295.5C 324.008,293.076 327.008,291.41 330.5,290.5 Z"/></g>
<g><path style="opacity:0.137" fill="#f0e7c7" d="M 170.5,293.5 C 172.674,293.75 174.341,294.75 175.5,296.5C 173.326,296.25 171.659,295.25 170.5,293.5 Z"/></g>
<g><path style="opacity:0.18" fill="#fff4ce" d="M 422.5,293.5 C 420.664,295.588 418.331,296.921 415.5,297.5C 417.336,295.412 419.669,294.079 422.5,293.5 Z"/></g>
<g><path style="opacity:0.157" fill="#f0e7c4" d="M 128.5,294.5 C 127.341,296.25 125.674,297.25 123.5,297.5C 124.659,295.75 126.326,294.75 128.5,294.5 Z"/></g>
<g><path style="opacity:0.039" fill="#efe9ce" d="M 29.5,295.5 C 28.4863,296.674 27.153,297.34 25.5,297.5C 26.287,295.896 27.6203,295.229 29.5,295.5 Z"/></g>
<g><path style="opacity:0.129" fill="#f3edd5" d="M 74.5,294.5 C 76.9279,295.212 79.2612,296.212 81.5,297.5C 82.3857,296.675 82.719,295.675 82.5,294.5C 83.8525,296.515 83.3525,298.182 81,299.5C 78.6744,297.934 76.5078,296.268 74.5,294.5 Z"/></g>
<g><path style="opacity:0.147" fill="#f1ebd6" d="M 412.5,293.5 C 412.5,294.833 412.5,296.167 412.5,297.5C 413.5,297.5 414.5,297.5 415.5,297.5C 414.713,299.104 413.38,299.771 411.5,299.5C 411.205,297.265 411.539,295.265 412.5,293.5 Z"/></g>
<g><path style="opacity:0.38" fill="#f6edcd" d="M 22.5,295.5 C 22.8212,297.048 23.8212,297.715 25.5,297.5C 24.9976,299.085 23.9976,299.585 22.5,299C 21.2089,297.708 21.2089,296.542 22.5,295.5 Z"/></g>
<g><path style="opacity:0.267" fill="#fef6d9" d="M 180.5,295.5 C 181.404,296.209 181.737,297.209 181.5,298.5C 179.901,298.768 178.568,298.434 177.5,297.5C 179.179,297.715 180.179,297.048 180.5,295.5 Z"/></g>
<g><path style="opacity:0.463" fill="#f2e8c4" d="M 217.5,291.5 C 217.201,293.604 217.534,295.604 218.5,297.5C 220.075,296.544 221.742,295.877 223.5,295.5C 216.27,301.556 214.27,300.223 217.5,291.5 Z"/></g>
<g><path style="opacity:0.349" fill="#fbf2d1" d="M 276.5,291.5 C 277.468,293.607 277.802,295.941 277.5,298.5C 276.209,298.737 275.209,298.404 274.5,297.5C 276.308,296.082 276.975,294.082 276.5,291.5 Z"/></g>
<g><path style="opacity:0.016" fill="#f3edd8" d="M 314.5,295.5 C 314.47,296.497 314.97,297.164 316,297.5C 317.138,297.011 318.305,296.678 319.5,296.5C 318.594,297.965 317.261,298.965 315.5,299.5C 313.466,298.426 313.133,297.093 314.5,295.5 Z"/></g>
<g><path style="opacity:0.125" fill="#fef6d7" d="M 374.5,294.5 C 375.434,295.568 375.768,296.901 375.5,298.5C 373.302,298.88 371.635,298.213 370.5,296.5C 371.583,296.539 372.583,296.873 373.5,297.5C 374.386,296.675 374.719,295.675 374.5,294.5 Z"/></g>
<g><path style="opacity:0.094" fill="#f5eed3" d="M 470.5,282.5 C 471.989,287.617 472.989,292.951 473.5,298.5C 471.302,298.88 469.635,298.213 468.5,296.5C 469.583,296.539 470.583,296.873 471.5,297.5C 471.833,297 472.167,296.5 472.5,296C 470.974,291.627 470.308,287.127 470.5,282.5 Z"/></g>
<g><path style="opacity:0.043" fill="#eeebdf" d="M 120.5,293.5 C 120.34,295.199 120.506,296.866 121,298.5C 121.671,297.748 122.504,297.414 123.5,297.5C 122.713,299.104 121.38,299.771 119.5,299.5C 119.205,297.265 119.539,295.265 120.5,293.5 Z"/></g>
</svg>
