<?xml version="1.0" standalone="no"?>
<!DOCTYPE svg PUBLIC "-//W3C//DTD SVG 20010904//EN"
 "http://www.w3.org/TR/2001/REC-SVG-20010904/DTD/svg10.dtd">
<svg version="1.0" xmlns="http://www.w3.org/2000/svg"
 width="500.000000pt" height="500.000000pt" viewBox="0 0 500.000000 500.000000"
 preserveAspectRatio="xMidYMid meet">

<g transform="translate(0.000000,500.000000) scale(0.100000,-0.100000)"
fill="#25b2eb" stroke="none">
<path d="M2328 4990 c-331 -24 -621 -102 -923 -250 -265 -129 -476 -282 -686
-497 -231 -236 -398 -486 -528 -793 -136 -322 -205 -742 -181 -1101 36 -525
215 -994 537 -1403 81 -102 273 -296 378 -381 207 -166 504 -336 726 -413 424
-148 851 -183 1292 -107 403 69 804 254 1132 520 104 85 296 279 377 380 152
191 323 496 396 706 171 491 193 1029 60 1503 -94 339 -255 653 -473 921 -85
104 -279 296 -380 377 -288 229 -692 421 -1027 488 -229 46 -491 65 -700 50z
m313 -1226 c187 -55 327 -195 383 -383 9 -32 16 -91 16 -141 0 -303 -237 -540
-540 -540 -157 0 -284 54 -393 168 -97 102 -147 229 -147 372 0 145 51 271
152 376 65 68 160 124 249 148 73 20 212 20 280 0z m189 -1404 c303 -53 581
-180 726 -332 112 -116 144 -202 144 -378 0 -132 -17 -205 -64 -276 -44 -66
-133 -128 -209 -144 -37 -8 -313 -10 -942 -8 l-890 3 -67 33 c-77 38 -130 92
-167 171 -23 50 -26 70 -29 195 -3 109 0 153 13 203 73 269 457 491 955 552
121 15 388 5 530 -19z"/>
</g>
</svg>
