<svg version="1.1" id="Layer_1" xmlns="http://www.w3.org/2000/svg" xmlns:xlink="http://www.w3.org/1999/xlink" x="0px" y="0px"
	 width="100%" viewBox="0 0 225 225" enable-background="new 0 0 225 225" xml:space="preserve">
<path fill="#FDFDFE" opacity="1.000000" stroke="none" 
	d="
M132.000000,226.000000 
	C88.000000,226.000000 44.500004,226.000000 1.000006,226.000000 
	C1.000004,151.000000 1.000004,76.000015 1.000002,1.000016 
	C75.999992,1.000011 150.999985,1.000011 225.999969,1.000005 
	C225.999985,75.999985 225.999985,150.999969 226.000000,225.999969 
	C194.833328,226.000000 163.666672,226.000000 132.000000,226.000000 
M183.957748,106.455894 
	C183.957748,106.455894 184.118256,106.139000 185.033035,106.271202 
	C195.356430,106.194885 205.679825,106.118568 216.518188,106.116791 
	C216.668579,106.030396 216.818970,105.944000 217.615814,105.658607 
	C217.726974,104.109306 217.838150,102.559998 217.624344,100.307823 
	C215.533112,100.040413 213.446060,99.584480 211.349945,99.538132 
	C202.154724,99.334785 192.956879,99.249947 183.836517,98.191185 
	C183.836517,95.269203 183.836517,92.347229 183.836517,89.366684 
	C180.073853,89.366684 176.764206,89.366684 173.347702,89.366684 
	C173.347702,92.891762 173.347702,96.005562 172.407074,99.430336 
	C165.588867,99.329697 158.770660,99.229057 152.034103,98.191734 
	C152.034103,95.256790 152.034103,92.321838 152.034103,89.344086 
	C148.372452,89.344086 145.183914,89.344086 141.962006,89.344086 
	C141.962006,92.845787 141.962006,95.986610 141.057632,99.384743 
	C113.333260,99.425018 85.608887,99.475632 57.884499,99.488884 
	C55.242664,99.490143 52.600716,99.257828 50.051994,98.196739 
	C50.051994,95.262375 50.051994,92.328018 50.051994,89.343216 
	C46.402016,89.343216 43.212234,89.343216 39.979507,89.343216 
	C39.979507,92.844337 39.979507,95.985504 39.073231,99.385422 
	C30.841553,99.425522 22.607862,99.379936 14.379783,99.573212 
	C12.591814,99.615204 10.823956,100.513298 8.992440,101.011726 
	C8.992440,101.011726 9.022128,101.057617 8.545236,101.376884 
	C8.413137,101.905655 8.281039,102.434418 8.079975,103.590599 
	C8.729053,104.345833 9.378132,105.101067 10.480495,106.116310 
	C10.652927,106.091644 10.825359,106.066971 11.915558,106.253418 
	C21.207743,106.230530 30.499929,106.207634 39.867706,106.474518 
	C39.867706,106.474518 40.017864,106.732521 39.894661,107.695885 
	C39.894661,112.982246 39.894661,118.268608 39.894661,124.034897 
	C49.397190,124.034897 58.471107,124.034897 68.024536,124.034897 
	C68.024536,128.916260 68.024536,133.326401 68.024536,137.746796 
	C71.608452,137.746796 74.690079,137.746796 77.887924,137.746796 
	C77.887924,129.724945 77.887924,121.975700 77.887924,113.676315 
	C68.588921,113.676315 59.515343,113.676315 50.281906,113.676315 
	C50.143349,111.002899 50.032589,108.865906 50.085785,106.465813 
	C50.085785,106.465813 50.176685,106.169441 51.085529,106.288719 
	C81.324806,106.251076 111.564079,106.213440 141.864090,106.469093 
	C141.864090,106.469093 142.007111,106.731339 141.866409,107.690376 
	C141.866409,111.782074 141.866409,115.873764 141.866409,120.518372 
	C146.864792,120.518372 151.248795,120.518372 155.572998,120.518372 
	C155.572998,123.181320 155.572998,125.263107 155.572998,127.896317 
	C150.904755,127.896317 146.513596,127.896317 142.127869,127.896317 
	C142.127869,131.532242 142.127869,134.597504 142.127869,137.795181 
	C150.148209,137.795181 157.877625,137.795181 165.840256,137.795181 
	C165.840256,128.534515 165.840256,119.496597 165.840256,109.995285 
	C162.032578,109.995285 158.408356,109.810379 154.813385,110.055145 
	C152.052353,110.243126 151.919312,108.675224 152.082748,106.468163 
	C152.082748,106.468163 152.176498,106.169456 153.085068,106.288704 
	C159.689590,106.236473 166.294113,106.184235 173.106766,106.459602 
	C173.106766,106.459602 173.370285,106.743805 173.269714,107.707512 
	C173.269714,117.650986 173.269714,127.594460 173.269714,137.789215 
	C176.946579,137.789215 180.173370,137.789215 183.738754,137.789215 
	C183.738754,127.280289 183.738754,117.007927 183.957748,106.455894 
M90.930687,92.149330 
	C101.617813,92.091576 112.304932,92.033821 123.786781,91.643738 
	C123.786781,88.462502 123.786781,85.281265 123.786781,82.151688 
	C121.594604,82.151688 119.814598,82.151688 117.293167,81.687439 
	C117.293167,78.288429 117.293167,74.889420 117.293167,71.380051 
	C120.793289,71.380051 124.012314,71.380051 127.527031,71.380051 
	C127.710564,74.951309 127.883186,78.310356 128.088745,82.310234 
	C131.681778,81.813812 134.752213,81.389603 137.984436,80.044891 
	C137.993103,68.014236 138.032700,55.983414 137.965759,43.953178 
	C137.958557,42.657043 137.332809,41.364346 136.118484,39.899414 
	C133.743637,39.958096 131.368790,40.016777 128.409378,40.031109 
	C128.275970,40.355721 128.142578,40.680332 127.822357,41.925552 
	C127.822357,48.162285 127.822357,54.399017 127.822357,61.118645 
	C120.353821,61.118645 113.629692,61.118645 106.413162,61.118645 
	C106.413162,68.326118 106.413162,75.035225 106.413162,81.694801 
	C103.806038,81.694801 101.722069,81.694801 99.162247,81.694801 
	C99.162247,73.538902 99.162247,65.652191 99.162247,56.981030 
	C95.502991,57.376637 92.380409,57.714222 89.026520,58.956955 
	C89.013947,68.667061 88.963295,78.377434 89.034225,88.086937 
	C89.043724,89.385612 89.668243,90.679802 90.930687,92.149330 
M89.784264,148.517395 
	C91.744476,148.618774 93.704697,148.720169 96.137917,148.846024 
	C96.137917,157.016373 96.137917,164.934540 96.137917,173.340912 
	C103.358978,173.340912 110.099953,173.340912 117.138290,173.340912 
	C117.138290,178.128311 117.138290,182.413147 117.138290,186.856567 
	C121.857430,186.856567 126.245560,186.856567 131.152679,186.856567 
	C131.152679,182.188110 131.152679,177.780060 131.152679,172.895660 
	C139.566727,172.895660 147.466156,172.895660 155.329056,172.895660 
	C155.329056,169.301163 155.329056,166.232788 155.329056,162.708038 
	C138.898605,162.708038 122.810867,162.708038 106.573914,162.708038 
	C106.573914,157.839035 106.573914,153.437225 106.573914,148.886810 
	C111.333649,148.886810 115.762222,148.886810 120.390289,148.886810 
	C120.659889,151.195648 120.900482,153.256088 121.137375,155.284851 
	C125.678535,155.284851 129.896561,155.284851 134.125504,155.284851 
	C134.125504,147.004562 134.125504,139.120651 134.125504,131.343048 
	C129.478714,131.343048 125.219925,131.343048 120.901749,131.343048 
	C120.789589,133.609665 120.692680,135.567841 120.583015,137.784012 
	C113.414948,137.784012 106.533058,137.784012 98.877502,137.784012 
	C99.277626,132.930374 99.649956,128.413895 100.952812,123.987061 
	C110.655518,123.992081 120.358582,124.038643 130.060516,123.954941 
	C131.431717,123.943115 132.797455,123.296188 134.355789,122.034554 
	C134.355789,119.427002 134.355789,116.819450 134.355789,113.955490 
	C119.219627,113.955490 104.615952,113.955490 89.210022,114.322899 
	C89.238823,125.522972 89.267624,136.723053 89.784264,148.517395 
M183.839355,155.526520 
	C183.839355,152.115707 183.839355,148.704895 183.839355,145.390533 
	C169.395065,145.390533 155.792374,145.390533 142.199875,145.390533 
	C142.199875,148.904739 142.199875,152.123627 142.199875,155.805328 
	C152.658340,155.805328 162.743393,155.805328 172.941544,155.805328 
	C172.941544,158.355362 172.941544,160.415649 172.941544,162.905090 
	C169.546371,162.905090 166.456589,162.905090 162.828857,162.905090 
	C162.828857,167.722519 162.828857,172.127670 162.828857,177.037231 
	C157.887024,177.037231 153.482162,177.037231 149.163849,177.037231 
	C149.163849,180.660034 149.163849,183.739182 149.163849,186.752777 
	C160.861176,186.752777 172.240372,186.752777 183.487640,186.752777 
	C183.487640,183.270844 183.487640,180.200302 183.487640,176.669556 
	C179.877075,176.669556 176.617645,176.669556 173.488632,176.669556 
	C173.488632,174.123383 173.488632,172.057541 173.488632,169.489304 
	C177.111267,169.489304 180.358047,169.489304 183.839279,169.489304 
	C183.839279,164.823303 183.839279,160.668304 183.839355,155.526520 
M49.573555,39.846485 
	C48.740643,39.846500 47.907730,39.845291 47.074821,39.846722 
	C39.856625,39.859093 39.851368,39.859234 39.847805,47.040001 
	C39.842930,56.868450 39.959675,66.698830 39.791180,76.524391 
	C39.724808,80.394844 41.217705,81.967659 45.048767,81.933311 
	C55.542709,81.839233 66.038620,81.838303 76.532524,81.934097 
	C80.340546,81.968864 81.968491,80.371307 81.933830,76.551079 
	C81.838615,66.057159 81.839050,55.561249 81.933533,45.067314 
	C81.967911,41.249607 80.427910,39.712051 76.542763,39.791740 
	C67.884048,39.969334 59.219173,39.846718 49.573555,39.846485 
M39.846489,161.505661 
	C39.846836,168.335022 39.949333,175.166534 39.805012,181.992828 
	C39.731384,185.475204 40.780876,187.247253 44.610657,187.198898 
	C55.435944,187.062195 66.264717,187.086411 77.090752,187.189819 
	C80.543442,187.222809 81.916481,185.666931 81.908241,182.385910 
	C81.881035,171.558975 81.882332,160.731873 81.909103,149.904938 
	C81.917381,146.557755 80.288193,145.075531 76.989258,145.086624 
	C66.162361,145.123032 55.335247,145.115219 44.508270,145.095520 
	C41.170162,145.089447 39.671818,146.619232 39.815144,150.016083 
	C39.962475,153.507797 39.846943,157.010620 39.846489,161.505661 
M157.551193,81.901970 
	C165.547531,81.901779 173.545456,81.806816 181.539505,81.941750 
	C185.479218,82.008255 187.300476,80.681091 187.218918,76.435310 
	C187.017410,65.943993 187.035965,55.444260 187.211716,44.952026 
	C187.278793,40.947220 185.614822,39.738693 181.833115,39.794079 
	C171.340179,39.947754 160.841812,39.956387 150.349213,39.791615 
	C146.379395,39.729271 145.022568,41.442333 145.066986,45.175499 
	C145.168076,53.670387 145.134094,62.167503 145.089462,70.663368 
	C145.025986,82.746353 144.435226,81.972099 157.551193,81.901970 
M219.009201,204.478531 
	C219.004303,197.825317 219.194061,191.161453 218.830826,184.527863 
	C218.757858,183.195404 216.582809,181.978043 215.376953,180.707611 
	C214.255951,181.909531 212.755707,182.943649 212.127533,184.363586 
	C211.571472,185.620529 211.974472,187.306763 211.973663,188.803482 
	C211.969513,196.393127 211.971756,203.982758 211.971756,211.977936 
	C202.693771,211.977936 194.075806,211.980194 185.457840,211.976547 
	C182.882202,211.975464 180.298492,212.640121 180.933029,215.681168 
	C181.216370,217.039154 183.773026,218.770538 185.377533,218.857101 
	C192.011536,219.214981 198.676010,219.024216 205.329208,219.005997 
	C220.526428,218.964386 218.970047,220.588760 219.009201,204.478531 
M8.897448,217.459854 
	C9.576518,217.917053 10.251429,218.765686 10.935280,218.772934 
	C21.746504,218.887848 32.560635,218.985382 43.368057,218.775757 
	C44.368137,218.756363 46.109463,216.611282 46.087353,215.481003 
	C46.064854,214.330917 44.483677,212.796387 43.221672,212.203217 
	C41.982029,211.620514 40.285801,211.978958 38.789864,211.976852 
	C31.023203,211.965927 23.256521,211.971771 15.028268,211.971771 
	C15.028268,209.583237 15.028985,207.787537 15.028140,205.991852 
	C15.024852,199.001343 15.231713,191.999283 14.850112,185.029465 
	C14.768044,183.530518 12.559728,182.147949 11.330859,180.711777 
	C10.219624,182.080276 8.165324,183.436310 8.147021,184.819275 
	C8.006322,195.450333 8.260856,206.086624 8.897448,217.459854 
M15.026437,41.121189 
	C15.026437,32.537277 15.026437,23.953365 15.026437,15.021070 
	C24.377556,15.021070 33.013096,15.188210 41.630730,14.870090 
	C43.219639,14.811436 45.789925,13.004004 46.070778,11.628711 
	C46.692547,8.584014 44.136482,7.971020 41.529881,7.979990 
	C32.044559,8.012633 22.558899,8.025249 13.073708,7.977348 
	C9.501699,7.959310 7.953449,9.643543 7.974259,13.168406 
	C8.030258,22.653509 7.843408,32.143852 8.140248,41.619987 
	C8.189884,43.204510 10.178831,44.728283 11.271666,46.280125 
	C12.520198,44.866619 13.768730,43.453117 15.026437,41.121189 
M219.009201,29.495369 
	C219.008179,24.006746 219.302979,18.492737 218.835403,13.044149 
	C218.684799,11.289034 216.579346,8.313765 215.278809,8.264675 
	C204.816620,7.869771 194.330231,7.932740 183.860245,8.203482 
	C182.786331,8.231251 180.842117,10.653289 180.979202,11.755765 
	C181.129105,12.961585 183.149063,14.711914 184.492844,14.847356 
	C188.610031,15.262328 192.793747,15.022068 196.951599,15.026917 
	C201.866882,15.032648 206.782166,15.028261 211.971664,15.028261 
	C211.971664,17.122734 211.971634,18.436134 211.971649,19.749537 
	C211.971725,26.402409 211.920242,33.055878 211.997070,39.707863 
	C212.028168,42.401321 211.169968,46.055538 215.394302,46.193256 
	C219.716919,46.334183 218.944016,42.703648 218.995346,39.972336 
	C219.054703,36.813335 219.009201,33.652367 219.009201,29.495369 
M119.346138,40.003399 
	C111.615204,40.003399 103.884270,40.003399 96.338043,40.003399 
	C96.338043,43.723312 96.338043,46.797222 96.338043,49.784500 
	C104.433456,49.784500 112.185120,49.784500 120.100006,49.784500 
	C120.100006,46.539295 120.100006,43.581291 119.346138,40.003399 
M90.923470,180.301254 
	C90.073914,182.334503 89.224358,184.367752 88.172157,186.885986 
	C96.243347,186.885986 102.959129,186.885986 109.830994,186.885986 
	C109.830994,184.681213 109.830994,182.755798 109.830994,180.287125 
	C103.717346,180.287125 97.784309,180.287125 90.923470,180.301254 
M49.509102,138.029129 
	C53.229832,138.029129 56.950565,138.029129 60.472824,138.029129 
	C60.472824,135.244720 60.472824,133.318130 60.472824,131.342407 
	C53.465290,131.342407 46.759552,131.342407 40.039146,131.342407 
	C40.039146,133.606766 40.039146,135.553894 40.039146,138.029129 
	C42.983459,138.029129 45.755692,138.029129 49.509102,138.029129 
z"/>
<path fill="#037AF6" opacity="1.000000" stroke="none" 
	d="
M90.012268,113.955490 
	C104.615952,113.955490 119.219627,113.955490 134.355789,113.955490 
	C134.355789,116.819450 134.355789,119.427002 133.780853,122.506065 
	C124.720215,122.984947 116.233582,122.924507 107.749367,123.040581 
	C105.170250,123.075867 102.597794,123.598167 100.022285,123.897415 
	C99.649956,128.413895 99.277626,132.930374 98.877502,137.784012 
	C106.533058,137.784012 113.414948,137.784012 120.583015,137.784012 
	C120.692680,135.567841 120.789589,133.609665 120.901749,131.343048 
	C125.219925,131.343048 129.478714,131.343048 134.125504,131.343048 
	C134.125504,139.120651 134.125504,147.004562 134.125504,155.284851 
	C129.896561,155.284851 125.678535,155.284851 121.137375,155.284851 
	C120.900482,153.256088 120.659889,151.195648 120.390289,148.886810 
	C115.762222,148.886810 111.333649,148.886810 106.573914,148.886810 
	C106.573914,153.437225 106.573914,157.839035 106.573914,162.708038 
	C122.810867,162.708038 138.898605,162.708038 155.329056,162.708038 
	C155.329056,166.232788 155.329056,169.301163 155.329056,172.895660 
	C147.466156,172.895660 139.566727,172.895660 131.152679,172.895660 
	C131.152679,177.780060 131.152679,182.188110 131.152679,186.856567 
	C126.245560,186.856567 121.857430,186.856567 117.138290,186.856567 
	C117.138290,182.413147 117.138290,178.128311 117.138290,173.340912 
	C110.099953,173.340912 103.358978,173.340912 96.137917,173.340912 
	C96.137917,164.934540 96.137917,157.016373 96.137917,148.846024 
	C93.704697,148.720169 91.744476,148.618774 89.770309,147.886200 
	C89.841652,136.155151 89.926964,125.055321 90.012268,113.955490 
z"/>
<path fill="#017AF6" opacity="1.000000" stroke="none" 
	d="
M128.993942,40.075462 
	C131.368790,40.016777 133.743637,39.958096 136.558014,40.448612 
	C136.998352,52.575352 136.964966,64.153107 137.036682,75.730202 
	C137.047516,77.476822 137.548431,79.220398 137.822647,80.965385 
	C134.752213,81.389603 131.681778,81.813812 128.088745,82.310234 
	C127.883186,78.310356 127.710564,74.951309 127.527031,71.380051 
	C124.012314,71.380051 120.793289,71.380051 117.293167,71.380051 
	C117.293167,74.889420 117.293167,78.288429 117.947144,82.172806 
	C121.814857,82.776840 123.689499,83.993515 123.039665,87.648697 
	C122.790596,89.049698 122.994545,90.531227 122.992058,91.976059 
	C112.304932,92.033821 101.617813,92.091576 90.466995,91.595718 
	C90.002312,85.595284 90.097473,80.146271 89.973518,74.702240 
	C89.847092,69.149544 89.505318,63.601749 89.257828,58.051811 
	C92.380409,57.714222 95.502991,57.376637 99.162247,56.981030 
	C99.162247,65.652191 99.162247,73.538902 99.162247,81.694801 
	C101.722069,81.694801 103.806038,81.694801 106.413162,81.694801 
	C106.413162,75.035225 106.413162,68.326118 106.413162,61.118645 
	C113.629692,61.118645 120.353821,61.118645 127.822357,61.118645 
	C127.822357,54.399017 127.822357,48.162285 128.126312,41.364628 
	C128.696640,40.621712 128.884537,40.378963 128.993942,40.075462 
z"/>
<path fill="#097CF6" opacity="1.000000" stroke="none" 
	d="
M183.839325,156.019913 
	C183.839279,160.668304 183.839279,164.823303 183.839279,169.489304 
	C180.358047,169.489304 177.111267,169.489304 173.488632,169.489304 
	C173.488632,172.057541 173.488632,174.123383 173.488632,176.669556 
	C176.617645,176.669556 179.877075,176.669556 183.487640,176.669556 
	C183.487640,180.200302 183.487640,183.270844 183.487640,186.752777 
	C172.240372,186.752777 160.861176,186.752777 149.163849,186.752777 
	C149.163849,183.739182 149.163849,180.660034 149.163849,177.037231 
	C153.482162,177.037231 157.887024,177.037231 162.828857,177.037231 
	C162.828857,172.127670 162.828857,167.722519 162.828857,162.905090 
	C166.456589,162.905090 169.546371,162.905090 172.941544,162.905090 
	C172.941544,160.415649 172.941544,158.355362 172.941544,155.805328 
	C162.743393,155.805328 152.658340,155.805328 142.199875,155.805328 
	C142.199875,152.123627 142.199875,148.904739 142.199875,145.390533 
	C155.792374,145.390533 169.395065,145.390533 183.839355,145.390533 
	C183.839355,148.704895 183.839355,152.115707 183.839325,156.019913 
z"/>
<path fill="#E82F3E" opacity="1.000000" stroke="none" 
	d="
M141.803360,106.175804 
	C111.564079,106.213440 81.324806,106.251076 50.338768,105.922943 
	C46.325375,105.766365 43.058746,105.975555 39.792114,106.184746 
	C30.499929,106.207634 21.207743,106.230530 11.388308,105.978134 
	C10.583109,105.754005 10.305160,105.805153 10.027210,105.856300 
	C9.378132,105.101067 8.729053,104.345833 8.329848,103.106018 
	C8.727190,102.100159 8.874660,101.578888 9.022129,101.057617 
	C9.022128,101.057617 8.992440,101.011726 9.484959,101.008568 
	C79.301422,101.007172 148.625381,101.008934 217.949310,101.010696 
	C217.838150,102.559998 217.726974,104.109306 217.184265,105.613129 
	C216.502884,105.725861 216.253052,105.884064 216.003220,106.042267 
	C205.679825,106.118568 195.356430,106.194885 184.288055,105.898117 
	C179.994934,105.727348 176.446793,105.929680 172.898636,106.132004 
	C166.294113,106.184235 159.689590,106.236473 152.338623,105.923004 
	C148.329239,105.763466 145.066299,105.969635 141.803360,106.175804 
z"/>
<path fill="#0B7CF6" opacity="1.000000" stroke="none" 
	d="
M50.065182,39.846458 
	C59.219173,39.846718 67.884048,39.969334 76.542763,39.791740 
	C80.427910,39.712051 81.967911,41.249607 81.933533,45.067314 
	C81.839050,55.561249 81.838615,66.057159 81.933830,76.551079 
	C81.968491,80.371307 80.340546,81.968864 76.532524,81.934097 
	C66.038620,81.838303 55.542709,81.839233 45.048767,81.933311 
	C41.217705,81.967659 39.724808,80.394844 39.791180,76.524391 
	C39.959675,66.698830 39.842930,56.868450 39.847805,47.040001 
	C39.851368,39.859234 39.856625,39.859093 47.074821,39.846722 
	C47.907730,39.845291 48.740643,39.846500 50.065182,39.846458 
M46.696148,58.508804 
	C46.696148,63.899258 46.696148,69.289711 46.696148,74.617104 
	C56.517735,74.617104 65.561218,74.617104 74.673218,74.617104 
	C74.673218,65.241913 74.673218,56.186169 74.673218,47.134254 
	C65.241112,47.134254 56.075531,47.134254 46.695950,47.134254 
	C46.695950,50.884666 46.695950,54.198147 46.696148,58.508804 
z"/>
<path fill="#0B7CF6" opacity="1.000000" stroke="none" 
	d="
M39.846466,161.007111 
	C39.846943,157.010620 39.962475,153.507797 39.815144,150.016083 
	C39.671818,146.619232 41.170162,145.089447 44.508270,145.095520 
	C55.335247,145.115219 66.162361,145.123032 76.989258,145.086624 
	C80.288193,145.075531 81.917381,146.557755 81.909103,149.904938 
	C81.882332,160.731873 81.881035,171.558975 81.908241,182.385910 
	C81.916481,185.666931 80.543442,187.222809 77.090752,187.189819 
	C66.264717,187.086411 55.435944,187.062195 44.610657,187.198898 
	C40.780876,187.247253 39.731384,185.475204 39.805012,181.992828 
	C39.949333,175.166534 39.846836,168.335022 39.846466,161.007111 
M46.696156,158.564850 
	C46.696156,165.649948 46.696156,172.735031 46.696156,180.055496 
	C56.347595,180.055496 65.392456,180.055496 74.572739,180.055496 
	C74.572739,170.654755 74.572739,161.481644 74.572739,152.366058 
	C65.146385,152.366058 56.084648,152.366058 46.695972,152.366058 
	C46.695972,154.305099 46.695972,155.945007 46.696156,158.564850 
z"/>
<path fill="#0B7CF6" opacity="1.000000" stroke="none" 
	d="
M157.062622,81.901947 
	C144.435226,81.972099 145.025986,82.746353 145.089462,70.663368 
	C145.134094,62.167503 145.168076,53.670387 145.066986,45.175499 
	C145.022568,41.442333 146.379395,39.729271 150.349213,39.791615 
	C160.841812,39.956387 171.340179,39.947754 181.833115,39.794079 
	C185.614822,39.738693 187.278793,40.947220 187.211716,44.952026 
	C187.035965,55.444260 187.017410,65.943993 187.218918,76.435310 
	C187.300476,80.681091 185.479218,82.008255 181.539505,81.941750 
	C173.545456,81.806816 165.547531,81.901779 157.062622,81.901947 
M163.513626,46.696148 
	C159.777328,46.696148 156.041031,46.696148 152.382080,46.696148 
	C152.382080,56.515446 152.382080,65.559227 152.382080,74.673622 
	C161.756622,74.673622 170.812561,74.673622 179.865906,74.673622 
	C179.865906,65.241768 179.865906,56.076023 179.865906,46.695950 
	C174.455231,46.695950 169.481155,46.695950 163.513626,46.696148 
z"/>
<path fill="#0078F6" opacity="1.000000" stroke="none" 
	d="
M151.918579,106.734741 
	C151.919312,108.675224 152.052353,110.243126 154.813385,110.055145 
	C158.408356,109.810379 162.032578,109.995285 165.840256,109.995285 
	C165.840256,119.496597 165.840256,128.534515 165.840256,137.795181 
	C157.877625,137.795181 150.148209,137.795181 142.127869,137.795181 
	C142.127869,134.597504 142.127869,131.532242 142.127869,127.896317 
	C146.513596,127.896317 150.904755,127.896317 155.572998,127.896317 
	C155.572998,125.263107 155.572998,123.181320 155.572998,120.518372 
	C151.248795,120.518372 146.864792,120.518372 141.866409,120.518372 
	C141.866409,115.873764 141.866409,111.782074 142.385956,107.155731 
	C145.909866,106.658974 148.914215,106.696854 151.918579,106.734741 
z"/>
<path fill="#0078F6" opacity="1.000000" stroke="none" 
	d="
M49.921829,106.728912 
	C50.032589,108.865906 50.143349,111.002899 50.281906,113.676315 
	C59.515343,113.676315 68.588921,113.676315 77.887924,113.676315 
	C77.887924,121.975700 77.887924,129.724945 77.887924,137.746796 
	C74.690079,137.746796 71.608452,137.746796 68.024536,137.746796 
	C68.024536,133.326401 68.024536,128.916260 68.024536,124.034897 
	C58.471107,124.034897 49.397190,124.034897 39.894661,124.034897 
	C39.894661,118.268608 39.894661,112.982246 40.404770,107.158821 
	C43.917194,106.657478 46.919514,106.693192 49.921829,106.728912 
z"/>
<path fill="#64D3E0" opacity="1.000000" stroke="none" 
	d="
M219.009216,204.972839 
	C218.970047,220.588760 220.526428,218.964386 205.329208,219.005997 
	C198.676010,219.024216 192.011536,219.214981 185.377533,218.857101 
	C183.773026,218.770538 181.216370,217.039154 180.933029,215.681168 
	C180.298492,212.640121 182.882202,211.975464 185.457840,211.976547 
	C194.075806,211.980194 202.693771,211.977936 211.971756,211.977936 
	C211.971756,203.982758 211.969513,196.393127 211.973663,188.803482 
	C211.974472,187.306763 211.571472,185.620529 212.127533,184.363586 
	C212.755707,182.943649 214.255951,181.909531 215.376953,180.707611 
	C216.582809,181.978043 218.757858,183.195404 218.830826,184.527863 
	C219.194061,191.161453 219.004303,197.825317 219.009216,204.972839 
z"/>
<path fill="#64D3E0" opacity="1.000000" stroke="none" 
	d="
M8.645077,217.090576 
	C8.260856,206.086624 8.006322,195.450333 8.147021,184.819275 
	C8.165324,183.436310 10.219624,182.080276 11.330858,180.711777 
	C12.559728,182.147949 14.768044,183.530518 14.850112,185.029465 
	C15.231713,191.999283 15.024852,199.001343 15.028140,205.991852 
	C15.028985,207.787537 15.028268,209.583237 15.028268,211.971771 
	C23.256521,211.971771 31.023203,211.965927 38.789864,211.976852 
	C40.285801,211.978958 41.982029,211.620514 43.221672,212.203217 
	C44.483677,212.796387 46.064854,214.330917 46.087353,215.481003 
	C46.109463,216.611282 44.368137,218.756363 43.368057,218.775757 
	C32.560635,218.985382 21.746504,218.887848 10.935280,218.772934 
	C10.251429,218.765686 9.576518,217.917053 8.645077,217.090576 
z"/>
<path fill="#64D3E0" opacity="1.000000" stroke="none" 
	d="
M15.021850,41.580399 
	C13.768730,43.453117 12.520198,44.866619 11.271666,46.280125 
	C10.178831,44.728283 8.189884,43.204510 8.140248,41.619987 
	C7.843408,32.143852 8.030258,22.653509 7.974259,13.168406 
	C7.953449,9.643543 9.501699,7.959310 13.073708,7.977348 
	C22.558899,8.025249 32.044559,8.012633 41.529881,7.979990 
	C44.136482,7.971020 46.692547,8.584014 46.070778,11.628711 
	C45.789925,13.004004 43.219639,14.811436 41.630730,14.870090 
	C33.013096,15.188210 24.377556,15.021070 15.026437,15.021070 
	C15.026437,23.953365 15.026437,32.537277 15.021850,41.580399 
z"/>
<path fill="#64D3E0" opacity="1.000000" stroke="none" 
	d="
M219.009216,29.993811 
	C219.009201,33.652367 219.054703,36.813335 218.995346,39.972336 
	C218.944016,42.703648 219.716919,46.334183 215.394302,46.193256 
	C211.169968,46.055538 212.028168,42.401321 211.997070,39.707863 
	C211.920242,33.055878 211.971725,26.402409 211.971649,19.749537 
	C211.971634,18.436134 211.971664,17.122734 211.971664,15.028261 
	C206.782166,15.028261 201.866882,15.032648 196.951599,15.026917 
	C192.793747,15.022068 188.610031,15.262328 184.492844,14.847356 
	C183.149063,14.711914 181.129105,12.961585 180.979202,11.755765 
	C180.842117,10.653289 182.786331,8.231251 183.860245,8.203482 
	C194.330231,7.932740 204.816620,7.869771 215.278809,8.264675 
	C216.579346,8.313765 218.684799,11.289034 218.835403,13.044149 
	C219.302979,18.492737 219.008179,24.006746 219.009216,29.993811 
z"/>
<path fill="#DF2941" opacity="1.000000" stroke="none" 
	d="
M217.786835,100.659256 
	C148.625381,101.008934 79.301422,101.007172 9.512156,101.011246 
	C10.823956,100.513298 12.591814,99.615204 14.379783,99.573212 
	C22.607862,99.379936 30.841553,99.425522 39.976479,99.322227 
	C43.906094,99.217339 46.932457,99.175644 49.958820,99.133942 
	C52.600716,99.257828 55.242664,99.490143 57.884499,99.488884 
	C85.608887,99.475632 113.333260,99.425018 141.960892,99.321915 
	C145.893585,99.215530 148.923019,99.171974 151.952454,99.128418 
	C158.770660,99.229057 165.588867,99.329697 173.301865,99.345024 
	C177.384430,99.213852 180.572220,99.167992 183.759995,99.122131 
	C192.956879,99.249947 202.154724,99.334785 211.349945,99.538132 
	C213.446060,99.584480 215.533112,100.040413 217.786835,100.659256 
z"/>
<path fill="#107FF6" opacity="1.000000" stroke="none" 
	d="
M183.738754,106.735565 
	C183.738754,117.007927 183.738754,127.280289 183.738754,137.789215 
	C180.173370,137.789215 176.946579,137.789215 173.269714,137.789215 
	C173.269714,127.594460 173.269714,117.650986 173.743744,107.164200 
	C177.391434,106.659111 180.565094,106.697334 183.738754,106.735565 
z"/>
<path fill="#0078F6" opacity="1.000000" stroke="none" 
	d="
M119.723068,40.313347 
	C120.100006,43.581291 120.100006,46.539295 120.100006,49.784500 
	C112.185120,49.784500 104.433456,49.784500 96.338043,49.784500 
	C96.338043,46.797222 96.338043,43.723312 96.338043,40.003399 
	C103.884270,40.003399 111.615204,40.003399 119.723068,40.313347 
z"/>
<path fill="#107EF6" opacity="1.000000" stroke="none" 
	d="
M91.387375,180.294189 
	C97.784309,180.287125 103.717346,180.287125 109.830994,180.287125 
	C109.830994,182.755798 109.830994,184.681213 109.830994,186.885986 
	C102.959129,186.885986 96.243347,186.885986 88.172157,186.885986 
	C89.224358,184.367752 90.073914,182.334503 91.387375,180.294189 
z"/>
<path fill="#067AF6" opacity="1.000000" stroke="none" 
	d="
M49.018509,138.029129 
	C45.755692,138.029129 42.983459,138.029129 40.039146,138.029129 
	C40.039146,135.553894 40.039146,133.606766 40.039146,131.342407 
	C46.759552,131.342407 53.465290,131.342407 60.472824,131.342407 
	C60.472824,133.318130 60.472824,135.244720 60.472824,138.029129 
	C56.950565,138.029129 53.229832,138.029129 49.018509,138.029129 
z"/>
<path fill="#107EF6" opacity="1.000000" stroke="none" 
	d="
M183.798248,98.656662 
	C180.572220,99.167992 177.384430,99.213852 173.772186,99.189545 
	C173.347702,96.005562 173.347702,92.891762 173.347702,89.366684 
	C176.764206,89.366684 180.073853,89.366684 183.836517,89.366684 
	C183.836517,92.347229 183.836517,95.269203 183.798248,98.656662 
z"/>
<path fill="#0077F6" opacity="1.000000" stroke="none" 
	d="
M151.993286,98.660080 
	C148.923019,99.171974 145.893585,99.215530 142.413086,99.193260 
	C141.962006,95.986610 141.962006,92.845787 141.962006,89.344086 
	C145.183914,89.344086 148.372452,89.344086 152.034103,89.344086 
	C152.034103,92.321838 152.034103,95.256790 151.993286,98.660080 
z"/>
<path fill="#0077F6" opacity="1.000000" stroke="none" 
	d="
M50.005409,98.665344 
	C46.932457,99.175644 43.906094,99.217339 40.429619,99.192856 
	C39.979507,95.985504 39.979507,92.844337 39.979507,89.343216 
	C43.212234,89.343216 46.402016,89.343216 50.051994,89.343216 
	C50.051994,92.328018 50.051994,95.262375 50.005409,98.665344 
z"/>
<path fill="#006FF5" opacity="1.000000" stroke="none" 
	d="
M137.903534,80.505142 
	C137.548431,79.220398 137.047516,77.476822 137.036682,75.730202 
	C136.964966,64.153107 136.998352,52.575352 136.995758,40.533932 
	C137.332809,41.364346 137.958557,42.657043 137.965759,43.953178 
	C138.032700,55.983414 137.993103,68.014236 137.903534,80.505142 
z"/>
<path fill="#0470F5" opacity="1.000000" stroke="none" 
	d="
M100.487549,123.942230 
	C102.597794,123.598167 105.170250,123.075867 107.749367,123.040581 
	C116.233582,122.924507 124.720215,122.984947 133.685822,122.960403 
	C132.797455,123.296188 131.431717,123.943115 130.060516,123.954941 
	C120.358582,124.038643 110.655518,123.992081 100.487549,123.942230 
z"/>
<path fill="#0070F5" opacity="1.000000" stroke="none" 
	d="
M89.142174,58.504383 
	C89.505318,63.601749 89.847092,69.149544 89.973518,74.702240 
	C90.097473,80.146271 90.002312,85.595284 90.005630,91.509094 
	C89.668243,90.679802 89.043724,89.385612 89.034225,88.086937 
	C88.963295,78.377434 89.013947,68.667061 89.142174,58.504383 
z"/>
<path fill="#006FF5" opacity="1.000000" stroke="none" 
	d="
M89.611145,114.139191 
	C89.926964,125.055321 89.841652,136.155151 89.526382,147.589050 
	C89.267624,136.723053 89.238823,125.522972 89.611145,114.139191 
z"/>
<path fill="#DD2942" opacity="1.000000" stroke="none" 
	d="
M183.848251,106.595734 
	C180.565094,106.697334 177.391434,106.659111 173.794037,106.682343 
	C173.370285,106.743805 173.106766,106.459602 173.002701,106.295807 
	C176.446793,105.929680 179.994934,105.727348 183.830673,105.832016 
	C184.118256,106.139000 183.957748,106.455894 183.848251,106.595734 
z"/>
<path fill="#DD2942" opacity="1.000000" stroke="none" 
	d="
M152.000671,106.601448 
	C148.914215,106.696854 145.909866,106.658974 142.456299,106.676216 
	C142.007111,106.731339 141.864090,106.469093 141.833725,106.322449 
	C145.066299,105.969635 148.329239,105.763466 151.884338,105.863373 
	C152.176498,106.169456 152.082748,106.468163 152.000671,106.601448 
z"/>
<path fill="#DD2942" opacity="1.000000" stroke="none" 
	d="
M50.003807,106.597366 
	C46.919514,106.693192 43.917194,106.657478 40.466370,106.677139 
	C40.017864,106.732521 39.867706,106.474518 39.829910,106.329636 
	C43.058746,105.975555 46.325375,105.766365 49.884346,105.863312 
	C50.176685,106.169441 50.085785,106.465813 50.003807,106.597366 
z"/>
<path fill="#0070F5" opacity="1.000000" stroke="none" 
	d="
M123.389420,91.809906 
	C122.994545,90.531227 122.790596,89.049698 123.039665,87.648697 
	C123.689499,83.993515 121.814857,82.776840 118.317856,82.404922 
	C119.814598,82.151688 121.594604,82.151688 123.786781,82.151688 
	C123.786781,85.281265 123.786781,88.462502 123.389420,91.809906 
z"/>
<path fill="#DF2941" opacity="1.000000" stroke="none" 
	d="
M8.783682,101.217255 
	C8.874660,101.578888 8.727190,102.100159 8.364331,102.792313 
	C8.281039,102.434418 8.413137,101.905655 8.783682,101.217255 
z"/>
<path fill="#006FF5" opacity="1.000000" stroke="none" 
	d="
M128.701660,40.053284 
	C128.884537,40.378963 128.696640,40.621712 128.219727,40.904320 
	C128.142578,40.680332 128.275970,40.355721 128.701660,40.053284 
z"/>
<path fill="#DD2942" opacity="1.000000" stroke="none" 
	d="
M10.253853,105.986305 
	C10.305160,105.805153 10.583109,105.754005 10.929425,105.872574 
	C10.825359,106.066971 10.652927,106.091644 10.253853,105.986305 
z"/>
<path fill="#DD2942" opacity="1.000000" stroke="none" 
	d="
M216.260712,106.079529 
	C216.253052,105.884064 216.502884,105.725861 216.861053,105.712631 
	C216.818970,105.944000 216.668579,106.030396 216.260712,106.079529 
z"/>
<path fill="#FBFCFF" opacity="1.000000" stroke="none" 
	d="
M46.696049,58.010216 
	C46.695950,54.198147 46.695950,50.884666 46.695950,47.134254 
	C56.075531,47.134254 65.241112,47.134254 74.673218,47.134254 
	C74.673218,56.186169 74.673218,65.241913 74.673218,74.617104 
	C65.561218,74.617104 56.517735,74.617104 46.696148,74.617104 
	C46.696148,69.289711 46.696148,63.899258 46.696049,58.010216 
M67.820511,58.620239 
	C67.736237,57.173058 67.651955,55.725876 67.566284,54.254692 
	C62.846817,54.254692 58.472599,54.254692 54.183483,54.254692 
	C54.183483,58.877911 54.183483,63.130505 54.183483,67.416962 
	C58.851585,67.416962 63.214054,67.416962 67.820320,67.416962 
	C67.820320,64.531563 67.820320,62.049004 67.820511,58.620239 
z"/>
<path fill="#FBFCFF" opacity="1.000000" stroke="none" 
	d="
M46.696064,158.074890 
	C46.695972,155.945007 46.695972,154.305099 46.695972,152.366058 
	C56.084648,152.366058 65.146385,152.366058 74.572739,152.366058 
	C74.572739,161.481644 74.572739,170.654755 74.572739,180.055496 
	C65.392456,180.055496 56.347595,180.055496 46.696156,180.055496 
	C46.696156,172.735031 46.696156,165.649948 46.696064,158.074890 
M67.820633,169.308670 
	C67.820633,166.046967 67.820633,162.785278 67.820633,159.442535 
	C62.874046,159.442535 58.626358,159.442535 54.217712,159.442535 
	C54.217712,164.082138 54.217712,168.452454 54.217712,173.108063 
	C58.015217,173.108063 61.507217,173.325012 64.941940,172.976852 
	C65.982422,172.871353 66.864418,171.202347 67.820633,169.308670 
z"/>
<path fill="#FBFCFF" opacity="1.000000" stroke="none" 
	d="
M164.010361,46.696049 
	C169.481155,46.695950 174.455231,46.695950 179.865906,46.695950 
	C179.865906,56.076023 179.865906,65.241768 179.865906,74.673622 
	C170.812561,74.673622 161.756622,74.673622 152.382080,74.673622 
	C152.382080,65.559227 152.382080,56.515446 152.382080,46.696148 
	C156.041031,46.696148 159.777328,46.696148 164.010361,46.696049 
M160.818954,53.926525 
	C160.059677,58.334557 159.300400,62.742588 158.486649,67.466843 
	C164.101028,67.466843 168.473526,67.466843 172.857025,67.466843 
	C172.857025,62.846951 172.857025,58.584393 172.857025,53.893303 
	C168.995834,53.893303 165.376389,53.893303 160.818954,53.926525 
z"/>
<path fill="#0B7CF6" opacity="1.000000" stroke="none" 
	d="
M67.820419,59.093342 
	C67.820320,62.049004 67.820320,64.531563 67.820320,67.416962 
	C63.214054,67.416962 58.851585,67.416962 54.183483,67.416962 
	C54.183483,63.130505 54.183483,58.877911 54.183483,54.254692 
	C58.472599,54.254692 62.846817,54.254692 67.566284,54.254692 
	C67.651955,55.725876 67.736237,57.173058 67.820419,59.093342 
z"/>
<path fill="#0B7CF6" opacity="1.000000" stroke="none" 
	d="
M67.819824,169.779083 
	C66.864418,171.202347 65.982422,172.871353 64.941940,172.976852 
	C61.507217,173.325012 58.015217,173.108063 54.217712,173.108063 
	C54.217712,168.452454 54.217712,164.082138 54.217712,159.442535 
	C58.626358,159.442535 62.874046,159.442535 67.820633,159.442535 
	C67.820633,162.785278 67.820633,166.046967 67.819824,169.779083 
z"/>
<path fill="#0B7CF6" opacity="1.000000" stroke="none" 
	d="
M161.287949,53.909912 
	C165.376389,53.893303 168.995834,53.893303 172.857025,53.893303 
	C172.857025,58.584393 172.857025,62.846951 172.857025,67.466843 
	C168.473526,67.466843 164.101028,67.466843 158.486649,67.466843 
	C159.300400,62.742588 160.059677,58.334557 161.287949,53.909912 
z"/>
</svg>